<svg width="206" height="157" viewBox="0 0 206 157" fill="none" xmlns="http://www.w3.org/2000/svg">
<g clip-path="url(#clip0_147_221)">
<path d="M142.06 77.1287C140.331 76.8082 134.344 91.5337 134.074 91.9967L134.062 92.0147L152.047 126.135L171.028 162.131L200.246 152.253L183.302 118.499L175.532 100.74C172.949 79.2512 157.748 74.9026 142.06 77.1287Z" fill="#68B968"/>
<path d="M112.202 71.6071L107.446 72.421C100.891 87.109 118.837 89.7437 141.903 77.0997L141.856 77.0939L138.116 76.4033L136.684 76.1294L112.202 71.6071Z" fill="#FFAE9A"/>
<path d="M95.8538 37.8856L100.328 36.6438" stroke="#F4EFF0" stroke-width="0.585339" stroke-miterlimit="10" stroke-linecap="round" stroke-linejoin="round"/>
<path d="M135.207 29.8724C135.303 30.3527 135.416 30.8446 135.527 31.3219C135.76 32.3348 136.036 33.339 136.367 34.317C136.469 34.5994 136.571 34.8817 136.673 35.164C137.49 37.286 138.637 39.2363 140.388 40.657C140.767 40.9597 141.171 41.2421 141.596 41.4751C141.715 41.542 141.817 41.5973 141.934 41.6498C145.496 43.4201 150.231 42.807 153.049 39.9436C156.489 41.4055 162.435 41.5493 165.291 38.6481C167.518 36.3871 169.705 31.5009 167.785 28.555C167.569 28.2348 167.311 27.9233 167.267 27.5537C167.159 26.8639 167.739 26.279 168.196 25.7639C169.657 24.0645 170.184 21.7042 169.879 19.495C169.859 19.3932 169.853 19.2884 169.833 19.1865C169.577 17.6031 168.931 16.1128 168.055 14.7592C167.77 14.3168 167.474 13.8918 167.151 13.4872C165.445 11.3156 162.757 9.4464 160.085 10.1619C160.079 7.7112 158.165 5.5512 155.863 4.7096C152.268 3.3845 146.526 4.7134 143.696 7.2915C142.505 8.3769 141.783 10.1405 142.4 11.6367C140.631 10.28 137.886 10.4046 136.235 11.9148C135.327 12.747 134.797 13.882 134.48 15.0956C134.334 15.6544 134.22 16.2219 134.15 16.7807C133.941 18.3814 133.897 19.9793 133.975 21.583C134.03 22.6919 134.149 23.8183 134.294 24.9243C134.35 25.2765 134.393 25.6462 134.448 25.9984C134.466 26.0857 134.483 26.173 134.486 26.2632C134.707 27.4449 134.951 28.6674 135.207 29.8724Z" fill="#262421"/>
<path d="M136.861 76.8659L136.745 76.0567L132.031 43.8247L110.895 57.0369L111.069 59.5749L111.391 64.2929L112 73.3272L112.038 73.8948C107.105 86.0189 118.992 84.6884 136.861 76.8659Z" fill="#FFAE9A"/>
<path d="M5.53691 49.2552C5.72881 50.14 5.93231 51.0074 6.13881 51.8893C6.87161 55.027 7.69461 58.1618 8.26731 61.3314C8.90401 64.8213 9.48811 68.8059 11.2542 71.9642C11.2833 71.9584 11.3094 71.938 11.3385 71.9322C15.5242 70.3847 19.6982 68.8546 23.8838 67.3071C25.7438 66.6177 27.6154 65.8352 29.4958 65.172C30.0459 64.9713 30.5989 64.7851 31.1578 64.6281C32.6713 64.1744 33.7977 64.2066 34.741 62.868L34.7527 62.8505C36.8547 59.8881 35.8924 54.4656 35.4595 51.162C35.2473 49.4943 35.0381 47.8411 34.826 46.1733C34.7563 45.597 34.6837 45.0062 34.5994 44.4328C34.4802 43.4577 34.3466 42.4856 34.2245 41.496C33.7538 37.7762 33.2685 34.0594 32.7949 30.3251C32.3939 27.1817 32.8156 15.1264 27.1777 15.9955C25.4605 16.2629 24.8983 18.4486 24.7903 20.1803C24.4485 25.8179 24.7966 31.4993 25.817 37.0615C25.7821 37.0382 25.7501 37.0295 25.7151 37.0062C24.9352 36.5869 24.0068 36.1821 23.1541 36.0044C22.2548 35.8209 21.2856 35.8934 20.5025 36.3677C19.411 37.0398 18.913 38.3348 18.5053 39.5513C17.2453 38.2443 15.2924 37.8626 13.6333 38.5724C11.9771 39.2967 10.8561 41.1098 10.9431 42.9085C10.0409 42.332 8.86521 41.7497 7.79701 41.8571C7.30801 41.9094 6.81911 42.0374 6.43771 42.3254C6.04471 42.6309 5.78851 43.0907 5.60791 43.5506C5.14494 44.7176 5.08064 45.9866 5.21425 47.2614C5.27521 47.9454 5.39151 48.6032 5.53691 49.2552Z" fill="#FFAE9A"/>
<path d="M114.466 59.3801C116.489 58.9759 118.459 58.3098 120.18 57.6786C124.351 56.134 128.379 53.6493 131.081 50.0525C135.867 43.7086 138.337 35.7692 135.408 28.0761C131.196 16.992 117.311 10.6703 106.425 16.3261C98.9668 20.2071 97.6058 27.6374 97.9418 35.228C98.2228 41.7098 99.0108 48.4536 102.158 54.2113C102.97 55.6987 103.942 57.1542 105.333 58.1324C107.972 59.9811 111.293 60.0139 114.466 59.3801Z" fill="#FFAE9A"/>
<path d="M115.181 37.4291C115.414 38.2907 116.086 38.8525 116.659 38.6926C117.233 38.5326 117.506 37.7061 117.277 36.8591C117.047 36.0121 116.372 35.4356 115.798 35.5956C115.21 35.7585 114.937 36.585 115.181 37.4291Z" fill="#231F20"/>
<path d="M102.866 36.7411C102.629 35.8881 102.905 35.0669 103.481 34.9069C104.058 34.7468 104.717 35.3086 104.954 36.1615C105.191 37.0145 104.915 37.8357 104.339 37.9957C103.762 38.1558 103.103 37.5941 102.866 36.7411Z" fill="#231F20"/>
<path d="M108.365 35.6586C108.443 37.2623 108.524 38.8805 108.588 40.4871C108.198 40.3532 107.709 40.1785 107.302 40.1842C106.88 40.1928 106.452 40.3994 106.289 40.7952C106.085 41.2899 106.393 41.8488 106.737 42.2796C107.103 42.7512 107.519 43.1675 107.976 43.5605" stroke="#231F20" stroke-width="0.487646" stroke-miterlimit="10" stroke-linecap="round" stroke-linejoin="round"/>
<path d="M115.676 33.0173C114.71 32.8774 113.473 32.5948 113.38 31.6751C113.363 31.4364 113.45 31.1919 113.575 30.9853C113.995 30.3567 114.716 30.1823 115.418 30.2086C117.228 30.2555 119.492 31.0593 120.435 32.7476C120.551 32.9514 120.56 33.2221 120.412 33.3879C120.339 33.4781 120.214 33.5334 120.1 33.5712C118.991 33.929 117.591 33.2855 116.485 33.1281C116.264 33.0815 115.988 33.061 115.676 33.0173Z" fill="#231F20"/>
<path d="M102.469 32.4322C101.503 32.2923 100.266 32.0097 100.173 31.09C100.156 30.8513 100.243 30.6068 100.368 30.4002C100.787 29.7716 101.509 29.5972 102.211 29.6235C104.021 29.6705 106.285 30.4742 107.228 32.1625C107.344 32.3663 107.353 32.637 107.205 32.8029C107.132 32.8931 107.007 32.9483 106.893 32.9861C105.784 33.3439 104.384 32.7004 103.278 32.543C103.06 32.5109 102.766 32.4788 102.469 32.4322Z" fill="#231F20"/>
<path d="M108.766 49.0327C109.348 49.7488 110.876 49.6706 111.741 49.4524C112.244 49.3216 112.748 49.115 113.205 48.827C114.026 48.3149 114.713 47.5874 115.074 46.7435C115.283 46.2778 115.385 45.7278 115.173 45.2708C115.15 45.23 115.141 45.1864 115.121 45.1602C114.207 43.6931 108.479 46.8352 108.545 48.3807C108.539 48.6543 108.627 48.8639 108.766 49.0327Z" fill="white"/>
<path d="M135.165 15.4275C141.433 19.0029 143.882 26.6406 143.479 33.6374C143.114 40.1423 140.502 46.3091 137.291 51.9752C136.574 53.2382 134.985 55.6594 133.585 56.0753C130.013 57.0612 129.527 44.1734 128.751 38.7742C128.233 39.8161 126.638 39.8623 125.724 39.152C124.796 38.4445 124.38 37.2715 124.022 36.1625C122.771 32.3262 121.675 28.4288 120.727 24.5168C119.711 25.5673 118.672 26.6527 117.339 27.252C116.008 27.8658 114.317 27.8859 113.191 26.9455C112.117 26.0401 111.981 24.221 113.07 23.3074C110.927 25.6877 106.875 27.3749 103.694 27.3597C102.346 27.3565 100.88 26.9837 100.126 25.863C99.5637 25.0217 99.5387 23.907 99.8147 22.9437C100.59 20.2312 103.804 17.2283 105.996 15.5494C108.677 13.5155 111.882 12.285 115.173 11.7181C121.92 10.567 129.222 12.0442 135.165 15.4275Z" fill="#262421"/>
<path d="M169.83 19.172C169.85 19.2739 169.856 19.3786 169.876 19.4805C170.167 21.6926 169.642 24.0674 168.193 25.7494C167.739 26.279 167.156 26.8494 167.264 27.5392C167.325 27.9205 167.584 28.2319 167.782 28.5405C169.699 31.4718 167.512 36.3581 165.288 38.6336C162.432 41.5348 156.486 41.3909 153.046 39.9291C150.225 42.7779 145.493 43.4056 141.931 41.6352C140.786 45.2237 139.132 48.6868 137.26 51.9666C136.544 53.2296 134.954 55.6508 133.554 56.0667" stroke="#F4EFF0" stroke-width="0.585339" stroke-miterlimit="10" stroke-linecap="round" stroke-linejoin="round"/>
<path d="M94.9042 179.034L159.916 167.272C150.496 147.315 154.104 99.0127 158.292 82.5575C156.491 81.1165 154.483 79.9285 152.35 79.0229L142.073 77.126L141.916 77.0969C118.836 89.7437 102.238 86.8853 108.804 72.1798L94.0795 73.9259C94.0795 73.9259 87.2524 96.9467 79.5522 105.977C72.4429 114.328 74.4733 119.87 75.9565 125.249C76.6138 127.63 78.0861 129.697 79.209 131.909C80.7713 135.033 91.2533 170.834 94.9042 179.034Z" fill="#68B968"/>
<path d="M30.4764 153.495C33.5644 154.104 36.9174 153.465 39.712 151.317L40.3815 150.805L87.6443 114.288L91.023 74.9908L87.0555 77.0244C77.1558 82.0896 68.0125 88.5167 59.8935 96.1317L24.5888 124.176L23.1246 125.332L17.8035 128.771L20.1636 144.069C21.3033 149.774 26.5998 152.726 30.4764 153.495Z" fill="#FFAE9A"/>
<path d="M18.171 130.377L10.7771 67.2313L33.7954 58.0622L44.8786 113.464L18.171 130.377Z" fill="#FFAE9A"/>
<path d="M98.0939 74.32C85.6433 70.33 62.2116 93.8677 45.0395 107.908C49.0302 120.005 49.3592 133.091 44.2598 147.791L97.2119 116.418L98.0939 74.32Z" fill="#68B968"/>
<path d="M103.601 23.2615C102.143 24.2944 101.162 25.6709 100.064 27.0706C99.7028 27.5362 99.2168 28.0571 98.6288 27.9929C97.8718 27.9171 97.5608 26.9653 97.5148 26.2027C97.1368 20.6028 104.325 14.6873 109.642 14.0335C112.655 13.6587 113.746 15.1811 112.229 17.9662C110.543 21.0422 107.033 21.1986 104.311 22.8018C104.055 22.9589 103.828 23.1102 103.601 23.2615Z" fill="#262421"/>
<path d="M111.377 64.2954L119.121 57.0731L111.07 59.5745L111.377 64.2954Z" fill="#231F20"/>
<path d="M111.669 41.071C109.503 38.5552 109.787 34.7601 112.303 32.5944C114.819 30.4287 118.614 30.7125 120.78 33.2282C122.945 35.744 122.661 39.5391 120.146 41.7048C117.63 43.8705 113.835 43.5867 111.669 41.071Z" stroke="white" stroke-width="0.585339" stroke-miterlimit="10" stroke-linecap="round" stroke-linejoin="round"/>
<path d="M98.0358 40.4856C95.2748 38.6437 94.529 34.9118 96.3708 32.1502C98.2128 29.3887 101.945 28.6431 104.706 30.485C107.468 32.3269 108.214 36.0588 106.372 38.8204C104.53 41.5819 100.798 42.3275 98.0358 40.4856Z" stroke="white" stroke-width="0.585339" stroke-miterlimit="10" stroke-linecap="round" stroke-linejoin="round"/>
<path d="M110.106 37.5657L106.989 37.1896" stroke="white" stroke-width="0.585339" stroke-miterlimit="10" stroke-linecap="round" stroke-linejoin="round"/>
<path d="M122.069 38.5809L129.238 36.5887" stroke="white" stroke-width="0.585339" stroke-miterlimit="10" stroke-linecap="round" stroke-linejoin="round"/>
<path d="M125.113 43.4334C123.05 39.0597 124.923 33.8415 129.296 31.7783C133.67 29.715 138.888 31.5881 140.951 35.9618C143.015 40.3355 141.142 45.5537 136.768 47.6169C132.394 49.6801 127.176 47.8071 125.113 43.4334Z" fill="#FFAE9A"/>
<path d="M139.131 38.0025C138.201 34.632 134.703 32.6521 131.335 33.5973C127.967 34.5425 125.985 38.0259 126.93 41.3936" stroke="#231F20" stroke-width="0.487646" stroke-miterlimit="10" stroke-linecap="round" stroke-linejoin="round"/>
<path d="M108.765 49.0325C109.347 49.7486 110.875 49.6704 111.739 49.4522C112.243 49.3214 112.746 49.1148 113.203 48.8268C114.024 48.3147 114.711 47.5872 115.072 46.7433C115.282 46.2776 115.384 45.7276 115.171 45.2706L108.765 49.0325Z" fill="#231F20"/>
<path d="M87.0209 93.3607C76.3887 107.789 71.2323 116.523 78.4241 130.477" stroke="#231F20" stroke-width="0.487646" stroke-miterlimit="10" stroke-linecap="round" stroke-linejoin="round"/>
<path d="M25.5982 36.6513C27.1719 41.1949 28.0644 45.9655 28.2351 50.7591C28.2814 52.0514 28.0715 53.6521 26.8577 54.0914C25.8826 54.4375 24.8437 53.7824 24.1454 53.0139C23.1327 51.8844 22.4782 50.5018 21.8964 49.1046C20.7502 46.3976 19.7728 43.6266 18.9789 40.7886C19.4267 42.4245 19.9706 44.4648 20.4184 46.1006C21.1891 48.8978 21.9598 51.7706 21.7206 54.6636C21.6359 55.6794 21.3475 56.8115 20.4656 57.3207C19.5428 57.8531 18.3641 57.4832 17.4998 56.8689C15.7916 55.6665 14.7821 53.7192 13.9588 51.7951C13.089 49.7896 12.3443 47.7288 11.7278 45.6273C13.0077 48.7767 13.8452 52.514 13.9172 55.9048C13.9373 57.1417 13.6547 58.6814 12.4758 58.9925C11.3843 59.2863 10.3979 58.2877 9.7403 57.3446C7.9131 54.7131 6.5079 51.7703 5.5918 48.6995" stroke="#231F20" stroke-width="0.487646" stroke-miterlimit="10" stroke-linecap="round" stroke-linejoin="round"/>
<path d="M42.1932 44.7314C41.6461 44.1142 40.9652 43.66 40.1532 43.5347C38.7678 43.3423 37.2687 44.0958 35.9037 44.2323C34.3465 44.3921 33.1008 44.5956 31.657 45.3229C28.7549 46.7804 26.3794 49.1316 23.3406 50.3592C22.2083 50.8276 20.98 51.1184 19.9495 51.7934C18.9191 52.4684 18.101 53.6761 18.3539 54.8666C18.4935 55.5651 18.9736 56.1502 19.5469 56.5957C21.0193 57.7544 23.0566 58.0284 24.9165 57.7173C26.7793 57.4209 28.5112 56.6208 30.214 55.8266C29.7218 57.7562 29.3867 59.7149 29.2204 61.6853C29.0978 63.0415 29.0684 64.4851 29.7288 65.6699C30.9159 67.8239 34.0446 68.2582 36.2277 67.1411C38.4108 66.0239 39.7938 63.7802 40.7315 61.5043C41.9166 58.6494 42.5634 55.5993 43.0297 52.555C43.4465 49.793 44.2504 47.0748 42.1932 44.7314Z" fill="#FFAE9A"/>
<path d="M31.6616 45.3375C28.7595 46.7951 26.384 49.1463 23.3452 50.3739C22.2129 50.8422 20.9846 51.133 19.9542 51.808C18.9237 52.4831 18.1056 53.6907 18.3586 54.8812C18.4981 55.5797 18.9782 56.1649 19.5515 56.6103C21.024 57.769 23.0613 58.043 24.9211 57.732C26.7839 57.4355 28.5159 56.6355 30.2187 55.8413C29.7264 57.7708 29.3913 59.7295 29.225 61.6999C29.1025 63.0562 29.073 64.4998 29.7335 65.6845" stroke="#231F20" stroke-width="0.487646" stroke-miterlimit="10" stroke-linecap="round" stroke-linejoin="round"/>
<path d="M167.235 135.95C177.172 134.858 187.175 137.43 195.326 143.232C195.396 143.279 195.434 143.317 195.448 143.314C204.201 150.54 198.38 165.565 187.041 166.151L113.538 167.835L112.406 142.016L167.235 135.95Z" fill="#FFAE9A"/>
<path d="M112.564 142.21L100.494 145.273C96.5549 146.241 92.9518 148.202 89.997 150.987L80.9377 159.501C77.753 162.498 77.0418 167.044 76.6451 171.194C76.581 171.934 76.5197 172.687 76.6505 173.418C76.8395 174.44 77.6834 174.952 78.015 175.779C78.4019 176.731 78.0727 178.037 78.416 179.074C78.7592 180.11 79.5099 181.065 80.5547 181.37C81.5992 183.417 82.6787 184.654 85.1031 184.745C89.3583 184.908 94.1721 185.521 98.3659 184.774C99.0969 184.643 99.8189 184.317 100.296 183.752C100.881 183.045 101.018 181.989 100.611 181.162C99.6419 179.192 95.6519 179.368 93.7835 179.03C101.491 176.098 108.684 172.255 113.525 167.852L112.564 142.21Z" fill="#FFAE9A"/>
<path d="M154.11 129.794L144.413 110.499" stroke="#231F20" stroke-width="0.487646" stroke-miterlimit="10" stroke-linecap="round" stroke-linejoin="round"/>
<path d="M131.334 33.5968L129.48 44.2431" stroke="#231F20" stroke-width="0.487646" stroke-miterlimit="10" stroke-linecap="round" stroke-linejoin="round"/>
<path d="M112.201 71.6077L111.865 75.4582" stroke="#231F20" stroke-width="0.487646" stroke-miterlimit="10" stroke-linecap="round" stroke-linejoin="round"/>
<path d="M105.068 111.327L101.201 111.077L100.59 120.519L104.457 120.769L105.068 111.327Z" fill="white"/>
<path d="M105.711 101.387L101.844 101.137L101.25 110.31L105.118 110.56L105.711 101.387Z" fill="white"/>
<path d="M112.765 109.475L105.978 109.035L105.725 112.95L112.512 113.389L112.765 109.475Z" fill="white"/>
<path d="M113.938 101.919L106.469 101.436L106.216 105.351L113.685 105.834L113.938 101.919Z" fill="white"/>
<path d="M113.505 117.424L105.467 116.904L105.213 120.819L113.252 121.339L113.505 117.424Z" fill="white"/>
<path d="M105.916 128.804C96.4367 128.191 89.2083 119.86 89.8292 110.265C90.4501 100.67 98.6917 93.3397 108.171 93.9537C117.65 94.5667 124.878 102.897 124.257 112.493C123.636 122.088 115.395 129.417 105.916 128.804ZM108.054 95.7577C99.5227 95.2057 92.17 101.745 91.6113 110.38C91.055 118.978 97.5387 126.45 106.033 127C114.564 127.552 121.919 120.975 122.475 112.377C123.034 103.742 116.547 96.3067 108.054 95.7577Z" fill="white"/>
</g>
<defs>
<clipPath id="clip0_147_221">
<rect width="206" height="157" fill="white"/>
</clipPath>
</defs>
</svg>
