<svg width="41" height="50" viewBox="0 0 41 50" fill="none" xmlns="http://www.w3.org/2000/svg">
<path d="M8.17464 8.91358C12.6417 0.79569 23.0451 -2.06858 31.4004 2.53206C39.7558 7.1327 42.9169 17.447 38.435 25.5798C37.0399 28.1027 34.9919 30.2398 32.4987 31.7387C29.486 33.5492 25.7016 34.0687 22.9412 36.458C22.2734 37.0368 14.289 43.9675 15.7731 44.7689C13.8141 43.4926 6.34924 39.7082 3.55918 38.5209C4.37542 38.9661 6.51247 29.8687 6.69056 29.0822C8.15979 22.389 4.65737 15.2951 8.17464 8.91358Z" fill="#E0AC23"/>
<path d="M8.17464 8.91358C12.6417 0.79569 23.0451 -2.06858 31.4004 2.53206C39.7558 7.1327 42.9169 17.447 38.435 25.5798C37.0399 28.1027 34.9919 30.2398 32.4987 31.7387C29.486 33.5492 25.7016 34.0687 22.9412 36.458C22.2734 37.0368 14.289 43.9675 15.7731 44.7689C13.8141 43.4926 6.34924 39.7082 3.55918 38.5209C4.37542 38.9661 6.51247 29.8687 6.69056 29.0822C8.15979 22.389 4.65738 15.2951 8.17464 8.91358Z" stroke="#231F20" stroke-width="0.531883" stroke-miterlimit="10" stroke-linecap="round" stroke-linejoin="round"/>
<path d="M13.335 41.5783L28.057 17.0762C28.8436 15.785 30.6245 15.5031 31.7375 16.5271C32.628 17.3433 32.9248 18.3673 32.0937 19.7624C31.5743 20.638 30.5503 21.0832 29.556 20.8754L25.9051 20.3708L19.5533 16.809L21.2451 13.8112C22.5956 11.407 19.4494 8.94344 17.4904 10.8876C17.4607 10.9173 17.4459 10.9321 17.4162 10.9618C16.5406 11.8522 16.4961 13.2769 17.3123 14.2267L19.5533 16.809L7.25029 38.6695" stroke="#231F20" stroke-width="0.531883" stroke-miterlimit="10" stroke-linecap="round" stroke-linejoin="round"/>
<path d="M1.75735 39.5744C1.56442 39.9157 1.5199 40.3164 1.60894 40.6726C1.43085 40.7319 1.2676 40.821 1.11919 40.9397C0.970783 41.0584 0.852057 41.2068 0.748171 41.3849C0.33263 42.1418 0.629466 43.0916 1.40119 43.522L1.97996 43.8337C1.9948 45.0506 2.64778 46.223 3.8202 46.876L4.71065 47.3658C4.69581 47.7516 4.88876 48.1375 5.25978 48.3452L5.66048 48.5679C6.0315 48.7756 6.46185 48.7311 6.78835 48.5085L8.07953 49.2209C9.23711 49.859 10.6024 49.7848 11.6265 49.1467L12.0717 49.3841C12.4575 49.5919 12.8879 49.6364 13.2738 49.5325C13.6597 49.4286 14.001 49.1763 14.2087 48.7905C14.4017 48.4491 14.4462 48.0484 14.3571 47.6923C14.5352 47.6329 14.6985 47.5439 14.8469 47.4251C14.9953 47.3064 15.114 47.158 15.2179 46.9799C15.4257 46.594 15.4554 46.1637 15.3366 45.7778C15.5296 45.7184 15.7225 45.6294 15.8857 45.5107C16.049 45.3919 16.1826 45.2287 16.2864 45.0358C16.702 44.2789 16.4052 43.3291 15.6335 42.9135L4.97779 37.0514C4.20607 36.6211 3.24142 36.8882 2.82588 37.6451C2.61811 38.0309 2.58842 38.4613 2.70714 38.8472C2.51421 38.9065 2.32129 38.9956 2.15804 39.1143C2.00964 39.233 1.86124 39.3814 1.75735 39.5744Z" fill="#1C1C1C"/>
<path d="M15.3379 45.7779L2.7826 38.7285" stroke="#F2F0EB" stroke-width="0.434746" stroke-miterlimit="10" stroke-linecap="round" stroke-linejoin="round"/>
<path d="M1.62484 40.6733L14.2988 47.8117" stroke="#F2F0EB" stroke-width="0.434746" stroke-miterlimit="10" stroke-linecap="round" stroke-linejoin="round"/>
<path d="M1.98202 43.8335L11.584 49.2355" stroke="#F2F0EB" stroke-width="0.434746" stroke-miterlimit="10" stroke-linecap="round" stroke-linejoin="round"/>
</svg>
