<svg width="442" height="266" viewBox="0 0 442 266" fill="none" xmlns="http://www.w3.org/2000/svg">
<g clip-path="url(#clip0_152_370)">
<path d="M174.464 251.973H223.008L217.176 191.616L216.389 183.928L216.063 180.648L194.262 179.743H194.143L188.236 195.652L184.111 206.783C181.128 214.767 178.798 222.944 177.15 231.225L174.464 251.973Z" fill="#8A4996"/>
<path d="M216.063 180.648L216.137 184.076L216.285 191.586L217.458 251.958H276.672C276.554 239.106 275.337 222.069 273.036 212.526C272.413 209.944 271.716 207.376 270.944 204.824C269.697 200.743 268.258 196.691 266.61 192.714C266.417 192.254 266.224 191.779 266.032 191.319L265.067 189.048L261.921 181.687L261.015 179.743H260.837L217.013 180.633H216.998L216.063 180.648Z" fill="#8A4996"/>
<path d="M350.845 170.677C330.793 234.63 260.96 270.185 194.467 249.336C127.974 228.487 90.9433 159.426 110.996 95.4733C131.048 31.5199 200.881 -4.03493 267.374 16.8138C333.867 37.6624 370.897 106.724 350.845 170.677Z" stroke="#68B968" stroke-width="20"/>
<path d="M262.203 96.4153C260.57 95.7623 251.814 109.03 251.458 109.431L251.443 109.445L262.395 146.429L273.956 185.445L304.543 181.482L294.541 145.063L290.4 126.126C292.077 104.548 278.023 97.3063 262.203 96.4153Z" fill="#E0AC23"/>
<path d="M234.006 85.1513L229.183 85.0183C219.878 98.1373 236.959 104.237 262.055 96.3563L262.01 96.3413L258.478 94.9313L257.128 94.3823L234.006 85.1513Z" fill="#FFAE9A"/>
<path d="M224.581 48.8809L229.211 48.5396" stroke="#F4EFF0" stroke-width="0.585339" stroke-miterlimit="10" stroke-linecap="round" stroke-linejoin="round"/>
<path d="M264.741 48.7326C264.741 49.2223 264.755 49.7269 264.77 50.2167C264.8 51.2555 264.874 52.2944 265.008 53.3184C265.052 53.6152 265.097 53.912 265.141 54.2088C265.527 56.4498 266.269 58.5869 267.709 60.3232C268.02 60.6942 268.362 61.0504 268.733 61.3621C268.837 61.4511 268.926 61.5253 269.03 61.5995C272.176 64.0334 276.94 64.3599 280.264 62.1041C283.351 64.2115 289.154 65.5175 292.522 63.232C295.149 61.4511 298.251 57.0879 296.945 53.823C296.797 53.4668 296.604 53.1106 296.633 52.7396C296.663 52.0421 297.346 51.582 297.895 51.1665C299.661 49.7863 300.64 47.575 300.774 45.3489C300.774 45.245 300.789 45.1411 300.789 45.0372C300.848 43.4344 300.507 41.8465 299.913 40.3476C299.72 39.8578 299.512 39.3829 299.275 38.9229C298.028 36.4593 295.758 34.0996 292.997 34.2777C293.472 31.8735 292.018 29.3802 289.925 28.1039C286.66 26.1004 280.769 26.2785 277.489 28.2523C276.109 29.0834 275.055 30.6714 275.367 32.2593C273.897 30.5823 271.181 30.1668 269.267 31.3244C268.213 31.9625 267.471 32.9717 266.922 34.0996C266.67 34.619 266.447 35.1533 266.269 35.6876C265.75 37.2162 265.394 38.7744 265.156 40.3624C264.993 41.4606 264.889 42.5885 264.815 43.7016C264.8 44.0577 264.77 44.4288 264.755 44.7849C264.755 44.874 264.755 44.963 264.741 45.0521C264.726 46.2542 264.726 47.5008 264.741 48.7326Z" fill="#262421"/>
<path d="M257.156 95.1392L257.201 94.3232L258.893 61.7922L235.578 70.6072L235.251 73.1302L234.643 77.8202L233.47 86.7992L233.396 87.3632C226.184 98.2852 238.101 99.3092 257.156 95.1392Z" fill="#FFAE9A"/>
<path d="M133.785 42.336C133.8 43.2413 133.83 44.1318 133.86 45.0371C133.964 48.2575 134.157 51.4928 134.097 54.7132C134.038 58.2602 133.83 62.282 134.943 65.7251C134.973 65.7251 135.002 65.7102 135.032 65.7102C139.44 65.0127 143.833 64.33 148.24 63.6325C150.199 63.3209 152.188 62.9202 154.162 62.6382C154.741 62.5492 155.319 62.4749 155.898 62.4304C157.471 62.282 158.57 62.5343 159.757 61.4064L159.772 61.3916C162.413 58.8983 162.532 53.3924 162.755 50.0681C162.873 48.3911 162.992 46.7289 163.111 45.0519C163.155 44.4731 163.2 43.8795 163.23 43.3007C163.304 42.3212 163.363 41.3417 163.437 40.3474C163.704 36.6075 163.957 32.8676 164.224 29.1129C164.446 25.9519 167.222 14.2128 161.523 13.9605C159.786 13.8863 158.807 15.9195 158.362 17.5965C156.922 23.0579 156.151 28.6974 156.061 34.3517C156.032 34.322 156.002 34.3072 155.972 34.2775C155.29 33.7136 154.459 33.1348 153.657 32.7934C152.811 32.4373 151.847 32.3185 150.986 32.6302C149.784 33.0754 149.042 34.2478 148.404 35.3609C147.424 33.8323 145.584 33.0754 143.818 33.4464C142.052 33.8323 140.597 35.3906 140.33 37.1715C139.559 36.4294 138.52 35.628 137.451 35.5241C136.961 35.4796 136.457 35.5093 136.026 35.7171C135.581 35.9397 135.24 36.3404 134.973 36.7559C134.29 37.8096 133.978 39.0414 133.86 40.3177C133.785 41.0004 133.771 41.6682 133.785 42.336Z" fill="#FFAE9A"/>
<path d="M238.621 73.6052C240.684 73.6052 242.747 73.3382 244.557 73.0562C248.95 72.3582 253.387 70.7112 256.741 67.7132C262.678 62.4298 266.655 55.1282 265.29 47.0103C263.331 35.3158 250.953 26.3965 239.17 29.8099C231.097 32.1547 228.306 39.1744 227.149 46.6838C226.155 53.095 225.605 59.8624 227.564 66.1252C228.069 67.7432 228.737 69.3602 229.909 70.5922C232.135 72.9222 235.386 73.6052 238.621 73.6052Z" fill="#FFAE9A"/>
<path d="M243.623 52.2195C243.682 53.1099 244.231 53.7926 244.825 53.7481C245.419 53.7036 245.849 52.9467 245.79 52.0711C245.73 51.1955 245.181 50.498 244.588 50.5425C243.979 50.587 243.549 51.3439 243.623 52.2195Z" fill="#231F20"/>
<path d="M231.68 49.1321C231.615 48.2493 232.046 47.498 232.643 47.454C233.24 47.41 233.776 48.09 233.841 48.9728C233.906 49.8556 233.475 50.6069 232.879 50.6509C232.282 50.6949 231.746 50.0149 231.68 49.1321Z" fill="#231F20"/>
<path d="M237.285 49.1479C237.048 50.7359 236.81 52.3388 236.558 53.9267C236.202 53.7189 235.757 53.4517 235.356 53.3775C234.94 53.3033 234.48 53.4221 234.243 53.7783C233.946 54.2235 234.139 54.8319 234.391 55.3217C234.658 55.8559 234.985 56.3457 235.356 56.8206" stroke="#231F20" stroke-width="0.487646" stroke-miterlimit="10" stroke-linecap="round" stroke-linejoin="round"/>
<path d="M244.973 47.9905C244.053 47.664 242.896 47.1446 242.985 46.2244C243.014 45.987 243.148 45.7644 243.311 45.5863C243.845 45.052 244.587 45.0223 245.27 45.1856C247.036 45.5863 249.099 46.8181 249.693 48.6583C249.767 48.8809 249.722 49.1481 249.544 49.2816C249.455 49.3558 249.322 49.3855 249.203 49.4004C248.045 49.5339 246.799 48.6286 245.745 48.2576C245.537 48.1686 245.27 48.0944 244.973 47.9905Z" fill="#231F20"/>
<path d="M232.135 44.829C231.215 44.5025 230.058 43.9832 230.147 43.0631C230.176 42.8256 230.31 42.603 230.473 42.4249C231.008 41.8906 231.75 41.8609 232.432 42.0241C234.198 42.4248 236.261 43.6566 236.855 45.4969C236.929 45.7195 236.884 45.9866 236.706 46.1202C236.617 46.1944 236.484 46.2241 236.365 46.239C235.207 46.3726 233.961 45.4673 232.907 45.0962C232.699 45.022 232.417 44.9329 232.135 44.829Z" fill="#231F20"/>
<path d="M235.058 62.3414C235.488 63.1576 237.002 63.3803 237.893 63.3357C238.412 63.306 238.946 63.2022 239.451 63.0092C240.356 62.6679 241.172 62.0891 241.692 61.3322C241.989 60.9167 242.196 60.3973 242.078 59.9075C242.063 59.863 242.063 59.8185 242.048 59.7888C241.439 58.1711 235.206 60.1301 234.969 61.6587C234.91 61.9259 234.954 62.1485 235.058 62.3414Z" fill="white"/>
<path d="M267.53 34.5593C272.977 39.2935 273.882 47.263 272.116 54.0452C270.484 60.3526 266.714 65.8882 262.455 70.8152C261.505 71.9132 259.472 73.9762 258.017 74.1102C254.322 74.3772 256.37 61.6437 256.667 56.1971C255.955 57.1173 254.381 56.8501 253.625 55.9745C252.853 55.0989 252.675 53.8671 252.541 52.7096C252.066 48.7026 251.755 44.6659 251.591 40.644C250.389 41.4751 249.157 42.3359 247.733 42.6624C246.308 43.0037 244.646 42.6921 243.726 41.5493C242.85 40.4511 243.073 38.6405 244.319 37.9579C241.752 39.8723 237.448 40.7331 234.332 40.0949C233.011 39.8278 231.645 39.1748 231.126 37.9282C230.74 36.9932 230.933 35.895 231.393 35.0045C232.684 32.4965 236.424 30.1813 238.903 28.9644C241.93 27.4951 245.314 26.9163 248.653 27.0054C255.494 27.1983 262.366 30.0774 267.53 34.5593Z" fill="#262421"/>
<path d="M300.789 45.0225C300.789 45.1264 300.774 45.2303 300.774 45.3342C300.626 47.5603 299.647 49.7864 297.895 51.1517C297.346 51.5821 296.664 52.0274 296.634 52.7249C296.619 53.1107 296.812 53.4669 296.946 53.8082C298.252 57.0584 295.15 61.4216 292.523 63.2173C289.154 65.5028 283.351 64.1968 280.265 62.0894C276.94 64.3303 272.176 64.0187 269.03 61.5848C267.205 64.8794 264.904 67.9513 262.426 70.8013C261.476 71.8993 259.443 73.9623 257.989 74.0953" stroke="#F4EFF0" stroke-width="0.585339" stroke-miterlimit="10" stroke-linecap="round" stroke-linejoin="round"/>
<path d="M195.997 187.107L262.053 188.309C256.725 166.894 269.726 120.235 277.057 104.919C275.573 103.153 273.836 101.595 271.922 100.289L262.216 96.4152L262.068 96.3562C236.957 104.236 221.241 98.1812 230.561 85.0472L215.779 83.8752C215.779 83.8752 204.575 105.112 195.255 112.458C186.647 119.255 187.552 125.088 187.953 130.653C188.131 133.116 189.17 135.432 189.838 137.821C190.758 141.19 194.023 178.351 195.997 187.107Z" fill="#E0AC23"/>
<path d="M137.822 149.442C140.731 150.644 144.144 150.674 147.305 149.115L148.062 148.744L201.563 122.194L212.575 84.3213L208.286 85.5373C197.586 88.5653 187.36 93.0773 177.907 98.9543L137.792 119.538L136.13 120.384L130.238 122.714L129.556 138.178C129.556 143.995 134.171 147.928 137.822 149.442Z" fill="#FFAE9A"/>
<path d="M130.284 124.36L135.404 60.9907L159.773 56.5088L159.787 113.007L130.284 124.36Z" fill="#FFAE9A"/>
<path d="M219.639 85.0482C208.212 78.6962 180.623 97.1872 161.033 107.591C162.576 120.235 160.335 133.132 152.455 146.548L210.527 126.157L219.639 85.0482Z" fill="#E0AC23"/>
<path d="M235.043 36.058C233.411 36.7852 232.179 37.9428 230.828 39.1004C230.383 39.4862 229.804 39.9018 229.24 39.7237C228.513 39.5011 228.394 38.5068 228.498 37.7499C229.225 32.1846 237.432 27.7917 242.775 28.1924C245.803 28.415 246.574 30.1217 244.541 32.5556C242.285 35.2418 238.813 34.7075 235.83 35.7464C235.548 35.8503 235.295 35.9541 235.043 36.058Z" fill="#262421"/>
<path d="M234.629 77.8203L243.637 72.2543L235.252 73.1303L234.629 77.8203Z" fill="#231F20"/>
<path d="M239.466 55.1029C237.835 52.2116 238.857 48.5456 241.748 46.9147C244.639 45.2839 248.305 46.3056 249.936 49.1969C251.567 52.0882 250.545 55.7542 247.654 57.385C244.762 59.0159 241.097 57.9941 239.466 55.1029Z" stroke="white" stroke-width="0.585339" stroke-miterlimit="10" stroke-linecap="round" stroke-linejoin="round"/>
<path d="M226.211 51.8579C223.864 49.5107 223.864 45.7051 226.211 43.3578C228.558 41.0106 232.364 41.0106 234.711 43.3578C237.058 45.7051 237.058 49.5107 234.711 51.8579C232.364 54.2051 228.558 54.2051 226.211 51.8579Z" stroke="white" stroke-width="0.585339" stroke-miterlimit="10" stroke-linecap="round" stroke-linejoin="round"/>
<path d="M238.619 51.3594L235.636 50.3799" stroke="white" stroke-width="0.585339" stroke-miterlimit="10" stroke-linecap="round" stroke-linejoin="round"/>
<path d="M250.152 54.6985L257.573 54.1494" stroke="white" stroke-width="0.585339" stroke-miterlimit="10" stroke-linecap="round" stroke-linejoin="round"/>
<path d="M252.186 60.0534C251.02 55.3602 253.879 50.6101 258.572 49.4437C263.265 48.2773 268.015 51.1363 269.181 55.8295C270.348 60.5226 267.489 65.2728 262.796 66.4392C258.103 67.6053 253.352 64.7465 252.186 60.0534Z" fill="#FFAE9A"/>
<path d="M266.996 57.4738C266.744 53.9862 263.702 51.3594 260.214 51.6266C256.727 51.8937 254.1 54.9212 254.367 58.4088" stroke="#231F20" stroke-width="0.487646" stroke-miterlimit="10" stroke-linecap="round" stroke-linejoin="round"/>
<path d="M235.058 62.3411C235.488 63.1573 237.002 63.3799 237.893 63.3354C238.412 63.3057 238.946 63.2018 239.451 63.0089C240.356 62.6676 241.172 62.0888 241.692 61.3319C241.989 60.9163 242.196 60.3969 242.078 59.9072L235.058 62.3411Z" fill="#231F20"/>
<path d="M205.051 101.551C191.798 113.616 185.031 121.17 189.35 136.263" stroke="#231F20" stroke-width="0.487646" stroke-miterlimit="10" stroke-linecap="round" stroke-linejoin="round"/>
<path d="M155.928 33.9067C156.581 38.6706 156.522 43.5235 155.75 48.2577C155.542 49.534 155.023 51.0626 153.747 51.2555C152.723 51.4039 151.832 50.558 151.298 49.6676C150.526 48.3616 150.155 46.8775 149.858 45.3934C149.265 42.5143 148.849 39.6055 148.627 36.6671C148.745 38.3589 148.879 40.4663 148.998 42.1581C149.205 45.0521 149.398 48.0202 148.597 50.8103C148.315 51.7898 147.81 52.8435 146.846 53.17C145.837 53.5113 144.753 52.9177 144.026 52.146C142.586 50.6322 141.978 48.5248 141.548 46.4768C141.088 44.3397 140.761 42.173 140.568 39.9914C141.206 43.3306 141.295 47.1595 140.702 50.4987C140.479 51.7156 139.9 53.17 138.683 53.2442C137.555 53.3184 136.784 52.146 136.324 51.0923C135.047 48.1538 134.246 44.9927 133.949 41.802" stroke="#231F20" stroke-width="0.487646" stroke-miterlimit="10" stroke-linecap="round" stroke-linejoin="round"/>
<path d="M170.619 45.0814C170.204 44.3691 169.625 43.7903 168.853 43.5083C167.532 43.0482 165.915 43.4935 164.549 43.3599C162.991 43.2115 161.73 43.167 160.171 43.5974C157.04 44.4581 154.25 46.2984 151.029 46.9068C149.827 47.1443 148.566 47.1888 147.423 47.6489C146.28 48.1089 145.242 49.133 145.256 50.3499C145.256 51.0623 145.612 51.7301 146.087 52.2792C147.304 53.7039 149.248 54.3717 151.133 54.4311C153.018 54.5053 154.873 54.0601 156.699 53.6149C155.838 55.4106 155.125 57.2657 154.576 59.1653C154.19 60.4713 153.879 61.8812 154.294 63.1723C155.036 65.5172 158.019 66.5562 160.379 65.8882C162.739 65.2203 164.534 63.291 165.9 61.243C167.621 58.6756 168.853 55.8113 169.907 52.9174C170.857 50.2905 172.177 47.7825 170.619 45.0814Z" fill="#FFAE9A"/>
<path d="M160.172 43.6125C157.041 44.4733 154.251 46.3136 151.03 46.9221C149.828 47.1595 148.567 47.204 147.424 47.664C146.281 48.1241 145.243 49.1482 145.257 50.3651C145.257 51.0775 145.614 51.7452 146.088 52.2943C147.305 53.7191 149.25 54.387 151.134 54.4464C153.019 54.5206 154.874 54.0753 156.7 53.6301C155.839 55.4258 155.127 57.2808 154.577 59.1805C154.192 60.4864 153.88 61.8964 154.295 63.1876" stroke="#231F20" stroke-width="0.487646" stroke-miterlimit="10" stroke-linecap="round" stroke-linejoin="round"/>
<path d="M216.448 234.316L216.893 244.808" stroke="#231F20" stroke-width="0.487646" stroke-miterlimit="10" stroke-linecap="round" stroke-linejoin="round"/>
<path d="M275.367 159.029C285.325 159.904 294.63 164.386 301.486 171.673C301.546 171.732 301.575 171.777 301.59 171.777C308.758 180.577 300.106 194.172 288.872 192.524L216.464 179.776L220.411 154.235L275.367 159.029Z" fill="#FFAE9A"/>
<path d="M220.53 154.457L208.093 155.095C204.041 155.274 200.124 156.49 196.68 158.642L186.129 165.217C182.418 167.532 180.831 171.851 179.628 175.843C179.421 176.555 179.213 177.282 179.198 178.024C179.183 179.063 179.91 179.731 180.074 180.607C180.267 181.616 179.688 182.833 179.821 183.916C179.955 185 180.504 186.083 181.469 186.588C182.092 188.799 182.908 190.224 185.268 190.787C189.408 191.782 194.009 193.325 198.268 193.414C199.01 193.429 199.782 193.251 200.361 192.791C201.073 192.212 201.415 191.203 201.177 190.313C200.613 188.19 196.666 187.582 194.9 186.884C203.032 185.519 210.839 183.159 216.448 179.79L220.53 154.457Z" fill="#FFAE9A"/>
<path d="M184.733 173.498C184.599 173.929 180.607 180.266 180.607 180.266" stroke="#231F20" stroke-width="0.487646" stroke-miterlimit="10" stroke-linecap="round" stroke-linejoin="round"/>
<path d="M187.821 179.39L182.003 186.247" stroke="#231F20" stroke-width="0.487646" stroke-miterlimit="10" stroke-linecap="round" stroke-linejoin="round"/>
<path d="M195.434 186.528L191.397 186.217" stroke="#231F20" stroke-width="0.487646" stroke-miterlimit="10" stroke-linecap="round" stroke-linejoin="round"/>
<path d="M263.701 150.421L257.973 129.599" stroke="#231F20" stroke-width="0.487646" stroke-miterlimit="10" stroke-linecap="round" stroke-linejoin="round"/>
<path d="M260.213 51.626L256.31 61.7029" stroke="#231F20" stroke-width="0.487646" stroke-miterlimit="10" stroke-linecap="round" stroke-linejoin="round"/>
<path d="M234.004 85.1522L232.921 88.8622" stroke="#231F20" stroke-width="0.487646" stroke-miterlimit="10" stroke-linecap="round" stroke-linejoin="round"/>
<path d="M326.948 197.709C319.24 190.001 319.24 177.503 326.948 169.795C334.656 162.087 347.154 162.087 354.862 169.795C362.57 177.503 362.57 190.001 354.862 197.709C347.154 205.417 334.656 205.417 326.948 197.709Z" fill="white"/>
<path d="M326.948 197.709C319.24 190.001 319.24 177.503 326.948 169.795C334.656 162.087 347.154 162.087 354.862 169.795C362.57 177.503 362.57 190.001 354.862 197.709C347.154 205.417 334.656 205.417 326.948 197.709Z" stroke="#231F20" stroke-width="0.531883" stroke-miterlimit="10" stroke-linecap="round" stroke-linejoin="round"/>
<path d="M332.221 179.049L335.783 181.349V180.251C335.783 179.36 336.51 178.633 337.401 178.633H348.902C349.793 178.633 350.52 179.36 350.52 180.251V187.256C350.52 188.146 349.793 188.873 348.902 188.873H337.401C336.51 188.873 335.783 188.146 335.783 187.256V186.142L332.251 188.71C331.85 189.007 331.286 188.71 331.286 188.22V179.568C331.286 179.078 331.821 178.781 332.221 179.049Z" fill="#231F20"/>
<path d="M377.01 139.514L370.718 131.618L371.682 128.799L382.189 129.466L383.51 132.227L379.889 139.499L377.01 139.514Z" fill="#FFCD9F"/>
<path d="M382.19 129.466C382.145 131.069 381.641 132.345 380.409 133.072C380.528 134.645 380.261 136.011 378.509 136.575C378.747 138.059 378.42 139.157 377.025 139.513L426.148 166.553L431.936 156.981L382.19 129.466Z" fill="#FFBC5A"/>
<path d="M431.907 156.981L426.119 166.553L430.007 168.69L433.836 170.798C435.884 171.926 438.481 171.184 439.609 169.136L440.885 166.82C442.028 164.772 441.271 162.175 439.223 161.032L435.676 159.074L431.907 156.981Z" fill="#FCA4A0"/>
<path d="M431.477 156.744L426.134 166.554L430.022 168.691L435.35 158.881L431.477 156.744Z" fill="white"/>
<path d="M370.719 131.618L368.167 128.442L371.684 128.798L370.719 131.618Z" fill="#231F20"/>
<path d="M427.75 163.377L378.494 136.575" stroke="#231F20" stroke-width="0.585339" stroke-miterlimit="10" stroke-linecap="round" stroke-linejoin="round"/>
<path d="M429.651 159.875L380.409 133.073" stroke="#231F20" stroke-width="0.585339" stroke-miterlimit="10" stroke-linecap="round" stroke-linejoin="round"/>
<path d="M103.051 177.831C99.297 190.55 106.569 203.892 119.272 207.647C119.302 207.647 119.317 207.661 119.347 207.661C122.938 208.715 126.589 208.878 130.047 208.3C138.803 206.815 146.401 200.508 149.088 191.426C152.293 180.592 147.485 169.283 138.12 163.866C136.503 162.931 134.737 162.16 132.867 161.611C125.476 159.429 117.877 160.972 112.075 165.128C110.635 166.152 109.314 167.339 108.142 168.675C107.37 169.535 106.658 170.47 106.02 171.45C104.743 173.364 103.749 175.501 103.051 177.831Z" fill="#BBCAFF"/>
<path d="M126.678 161.343L126.277 158.301L123.235 158.686L123.858 161.699L126.678 161.343Z" fill="#F7F7F7"/>
<path d="M129.067 211.208L129.215 207.735L126.188 208.121L125.98 211.253L129.067 211.208Z" fill="#231F20"/>
<path d="M127.404 155.927L127.463 158.657C87.304 161.314 91.6524 215.037 129.956 210.808L130.12 214.236C82.9557 215.779 87.868 155.63 127.404 155.927Z" fill="#231F20"/>
<path d="M111.884 210.459L117.207 212.03L114.334 221.766L109.01 220.195L111.884 210.459Z" fill="#231F20"/>
<path d="M116.528 220.617C115.964 219.474 115.044 217.901 115.044 217.901L110.25 216.491L107.995 218.168C107.505 218.584 100.693 218.065 100.381 219.089L106.214 222.205C108.944 225.173 112.12 226.39 115.949 225.084L121.232 224.936C121.559 223.763 116.81 221.181 116.528 220.617Z" fill="#231F20"/>
<path d="M120.342 224.58C121.173 224.832 121.945 225.263 122.583 225.842L123.325 226.509C124.141 227.251 124.453 228.528 124.082 229.759L96.938 221.196C97.2052 220.261 97.9175 219.564 98.7338 219.386L99.7578 219.178C100.722 218.985 101.717 219.015 102.652 219.297L120.342 224.58Z" fill="#231F20"/>
<path d="M142.573 173.602C142.826 173.825 143.093 174.047 143.256 174.344C143.434 174.685 143.434 175.101 143.434 175.487C143.434 177.149 143.241 179.167 141.727 179.895C140.703 180.384 139.516 180.028 138.418 179.746C137.335 179.449 136.058 179.256 135.168 179.954C134.856 180.206 134.634 180.533 134.337 180.8C133.966 181.141 133.491 181.364 133.105 181.675C132.081 182.521 131.71 183.916 131.413 185.208C131.324 185.593 131.235 186.009 131.339 186.395C131.443 186.781 131.74 187.077 131.858 187.463C131.962 187.834 131.888 188.22 131.814 188.591C131.398 190.58 130.849 192.554 130.478 194.542C130.181 196.16 129.276 197.243 127.406 197.169C126.189 197.125 125.017 196.368 124.468 195.284C124.186 194.72 124.052 194.067 123.681 193.548C122.612 192.094 119.897 192.123 119.481 190.372C119.377 189.912 119.466 189.407 119.229 188.992C118.962 188.517 118.324 188.309 118.131 187.805C117.923 187.285 118.249 186.736 118.338 186.187C118.68 184.213 116.513 184.376 115.682 183.249C115.43 182.907 115.4 182.447 115.192 182.076C114.955 181.661 114.524 181.408 114.183 181.067C113.842 180.74 113.574 180.221 113.797 179.791C114.079 179.271 114.821 179.316 115.415 179.242C116.201 179.138 116.899 178.663 117.552 178.203C118.531 177.52 119.57 176.733 119.837 175.576C119.956 175.056 119.897 174.493 120.119 174.018C120.475 173.261 121.277 172.786 121.707 172.059C122.063 171.45 122.182 170.456 122.82 170.07C123.221 169.818 123.74 169.877 124.2 169.907C125.759 170.011 127.302 169.654 128.831 169.298C129.365 169.18 129.914 169.046 130.345 168.705C130.612 168.497 130.819 168.23 131.101 168.081C131.517 167.859 132.007 167.903 132.482 167.948C133.862 168.081 135.257 168.23 136.548 168.719C137.824 169.194 138.537 169.951 139.442 170.916C140.392 171.881 141.534 172.726 142.573 173.602Z" fill="#68B968" stroke="#68B968" stroke-width="0.585339" stroke-miterlimit="10" stroke-linecap="round" stroke-linejoin="round"/>
<path d="M104.862 174.329C104.625 175.383 104.016 177.46 104.476 178.469C104.565 178.677 104.744 178.855 104.847 179.063C105.144 179.672 104.818 180.414 104.922 181.081C104.936 181.215 104.981 181.349 105.1 181.438C105.307 181.586 105.604 181.423 105.738 181.215C106.02 180.77 105.901 180.176 106.109 179.686C106.332 179.152 106.881 178.84 107.059 178.306C107.177 177.98 107.029 177.609 107.103 177.267C107.341 176.214 108.231 175.145 109.018 174.433C109.404 174.077 109.849 173.75 110.368 173.646C110.888 173.542 111.496 173.706 111.763 174.166C111.645 174.329 111.541 174.492 111.422 174.655C112.075 175.204 112.105 176.228 112.683 176.852C113.084 177.297 113.678 177.475 114.242 177.638C114.954 177.846 115.711 178.054 116.423 177.861C117.403 177.594 118.041 176.629 118.397 175.679C119.154 173.691 120.222 171.984 120.846 169.981C121.484 167.977 123.517 167.962 125.357 167.947C126.396 167.932 127.465 167.888 128.385 167.413C129.617 166.76 130.626 165.335 131.991 165.602C132.511 165.706 132.941 166.048 133.386 166.345C134.158 166.864 134.989 167.294 135.865 167.606C136.443 167.814 137.364 167.754 137.364 167.146C137.378 166.404 135.998 166.33 135.924 165.588C135.879 165.202 136.265 164.89 136.636 164.771C137.007 164.653 137.423 164.623 137.735 164.4C137.927 164.267 138.061 164.089 138.135 163.881C136.518 162.946 134.752 162.174 132.882 161.625C125.491 159.444 117.892 160.987 112.09 165.142C110.754 166.255 109.359 167.398 108.157 168.689C107.341 169.55 106.613 170.455 106.035 171.465C105.5 172.325 105.085 173.29 104.862 174.329Z" fill="#68B968" stroke="#68B968" stroke-width="0.585339" stroke-miterlimit="10" stroke-linecap="round" stroke-linejoin="round"/>
<path d="M117.167 190.283C117.463 190.52 117.686 190.787 117.73 191.158C117.76 191.426 117.686 191.678 117.686 191.945C117.701 192.361 117.923 192.746 118.072 193.147C118.22 193.548 118.294 194.023 118.027 194.349C117.76 194.676 117.256 194.705 116.87 194.542C116.484 194.364 116.202 194.038 115.95 193.696C115.445 193.028 115 192.316 114.629 191.574C114.243 190.832 113.709 189.511 113.694 188.665C113.679 188.324 113.931 187.968 114.258 187.953C114.658 187.953 114.881 188.398 115.074 188.739C115.475 189.467 116.514 189.778 117.167 190.283Z" fill="#68B968"/>
<path d="M119.363 207.662C122.954 208.715 126.605 208.878 130.063 208.3C129.395 207.795 128.564 207.365 128.193 207.172C127.347 206.727 126.368 206.4 125.448 206.682C124.854 206.875 124.32 207.32 123.696 207.35C123.37 207.365 123.043 207.261 122.717 207.187C121.604 206.934 120.372 207.112 119.363 207.662Z" fill="#68B968"/>
<path d="M18.3624 179.167H34.8208C44.5564 179.167 52.4517 187.062 52.4517 196.798C52.4517 206.533 44.5564 214.428 34.8208 214.428H19.5794L16.7893 223.837L13.1979 213.657C5.97044 211.445 0.716797 204.737 0.716797 196.783C0.73164 187.062 8.62694 179.167 18.3624 179.167Z" fill="white"/>
<path d="M18.3624 179.167H34.8208C44.5564 179.167 52.4517 187.062 52.4517 196.798C52.4517 206.533 44.5564 214.428 34.8208 214.428H19.5794L16.7893 223.837L13.1979 213.657C5.97044 211.445 0.716797 204.737 0.716797 196.783C0.731638 187.062 8.62694 179.167 18.3624 179.167Z" stroke="#231F20" stroke-width="0.585339" stroke-miterlimit="10" stroke-linecap="round" stroke-linejoin="round"/>
<path d="M31.1108 198.86C30.4059 198.86 29.8345 198.289 29.8345 197.584C29.8345 196.879 30.4059 196.307 31.1108 196.307C31.8157 196.307 32.3871 196.879 32.3871 197.584C32.3871 198.289 31.8157 198.86 31.1108 198.86Z" fill="#231F20"/>
<path d="M26.2573 198.86C25.5524 198.86 24.981 198.288 24.981 197.583C24.981 196.879 25.5524 196.307 26.2573 196.307C26.9622 196.307 27.5336 196.879 27.5336 197.583C27.5336 198.288 26.9622 198.86 26.2573 198.86Z" fill="#231F20"/>
<path d="M21.4057 198.86C20.7009 198.86 20.1294 198.289 20.1294 197.584C20.1294 196.879 20.7009 196.307 21.4057 196.307C22.1106 196.307 22.682 196.879 22.682 197.584C22.682 198.289 22.1106 198.86 21.4057 198.86Z" fill="#231F20"/>
<path d="M397.64 192.465H412.243C420.88 192.465 427.885 199.469 427.885 208.107C427.885 216.744 420.88 223.749 412.243 223.749H398.723L396.245 232.089L393.054 223.066C386.643 221.107 381.983 215.141 381.983 208.092C381.998 199.469 389.002 192.465 397.64 192.465Z" fill="#8A4996"/>
<path d="M397.64 192.465H412.243C420.88 192.465 427.885 199.469 427.885 208.107C427.885 216.744 420.88 223.749 412.243 223.749H398.723L396.245 232.089L393.054 223.066C386.643 221.107 381.983 215.141 381.983 208.092C381.998 199.469 389.002 192.465 397.64 192.465Z" stroke="#231F20" stroke-width="0.585339" stroke-miterlimit="10" stroke-linecap="round" stroke-linejoin="round"/>
<path d="M408.947 209.932C408.324 209.932 407.819 209.427 407.819 208.804C407.819 208.181 408.324 207.677 408.947 207.677C409.57 207.677 410.075 208.181 410.075 208.804C410.075 209.427 409.57 209.932 408.947 209.932Z" fill="white"/>
<path d="M404.642 209.932C404.019 209.932 403.514 209.427 403.514 208.804C403.514 208.181 404.019 207.677 404.642 207.677C405.265 207.677 405.77 208.181 405.77 208.804C405.77 209.427 405.265 209.932 404.642 209.932Z" fill="white"/>
<path d="M400.339 209.932C399.716 209.932 399.211 209.427 399.211 208.804C399.211 208.181 399.716 207.677 400.339 207.677C400.962 207.677 401.467 208.181 401.467 208.804C401.467 209.427 400.962 209.932 400.339 209.932Z" fill="white"/>
<path d="M332.339 56.1826H355.55C369.278 56.1826 380.409 67.3132 380.409 81.0412C380.409 94.7682 369.278 105.899 355.55 105.899H334.061L330.128 119.167L325.068 104.83C314.887 101.714 307.481 92.2452 307.481 81.0552C307.481 67.3132 318.612 56.1826 332.339 56.1826Z" fill="white"/>
<path d="M332.339 56.1826H355.55C369.278 56.1826 380.409 67.3132 380.409 81.0412C380.409 94.7682 369.278 105.899 355.55 105.899H334.061L330.128 119.167L325.068 104.83C314.887 101.714 307.481 92.2452 307.481 81.0552C307.481 67.3132 318.612 56.1826 332.339 56.1826Z" stroke="#231F20" stroke-width="0.585339" stroke-miterlimit="10" stroke-linecap="round" stroke-linejoin="round"/>
<path d="M349.033 83.4073C348.332 82.7063 348.332 81.5693 349.033 80.8683C349.734 80.1663 350.871 80.1663 351.573 80.8683C352.274 81.5693 352.274 82.7063 351.573 83.4073C350.871 84.1083 349.734 84.1083 349.033 83.4073Z" fill="#231F20"/>
<path d="M342.203 83.4152C341.502 82.7142 341.502 81.5772 342.203 80.8762C342.904 80.1742 344.041 80.1742 344.743 80.8762C345.444 81.5772 345.444 82.7142 344.743 83.4152C344.041 84.1172 342.904 84.1172 342.203 83.4152Z" fill="#231F20"/>
<path d="M335.363 83.4133C334.662 82.7113 334.662 81.5743 335.363 80.8733C336.064 80.1723 337.201 80.1723 337.903 80.8733C338.604 81.5743 338.604 82.7113 337.903 83.4133C337.201 84.1143 336.064 84.1143 335.363 83.4133Z" fill="#231F20"/>
<path d="M62.5372 147.513L81.7412 137.985L69.5124 113.334L50.3084 122.862C47.2958 124.361 46.0788 127.997 47.5629 131.01L54.3896 144.767C55.8737 147.78 59.5245 148.997 62.5372 147.513Z" fill="#C9345D"/>
<path d="M81.7259 137.985L99.4903 129.169C102.503 127.67 103.72 124.034 102.236 121.022L95.4091 107.264C93.9101 104.252 90.2742 103.035 87.2615 104.519L69.4971 113.334L81.7259 137.985Z" fill="white"/>
<path d="M62.5372 147.513L81.7412 137.985L69.5124 113.334L50.3084 122.862C47.2958 124.361 46.0788 127.997 47.5629 131.01L54.3896 144.767C55.8737 147.78 59.5245 148.997 62.5372 147.513Z" stroke="#231F20" stroke-width="0.487646" stroke-miterlimit="10" stroke-linecap="round" stroke-linejoin="round"/>
<path d="M81.7259 137.985L99.4903 129.169C102.503 127.67 103.72 124.034 102.236 121.022L95.4091 107.264C93.9101 104.252 90.2742 103.035 87.2615 104.519L69.4971 113.334L81.7259 137.985Z" stroke="#231F20" stroke-width="0.487646" stroke-miterlimit="10" stroke-linecap="round" stroke-linejoin="round"/>
<path d="M36.8313 49.934C41.2983 41.8162 51.7017 38.9519 60.0571 43.5525C68.4124 48.1532 71.5735 58.4675 67.0916 66.6002C65.6966 69.1232 63.6485 71.2602 61.1553 72.7592C58.1426 74.5702 54.3582 75.0892 51.5978 77.4782C50.93 78.0572 42.9457 84.9882 44.4297 85.7892C42.4708 84.5132 35.0059 80.7282 32.2158 79.5412C33.0321 79.9862 35.1691 70.8892 35.3472 70.1022C36.8164 63.4095 33.314 56.3156 36.8313 49.934Z" fill="#E0AC23"/>
<path d="M36.8313 49.934C41.2983 41.8162 51.7017 38.9519 60.0571 43.5525C68.4124 48.1532 71.5735 58.4675 67.0916 66.6002C65.6966 69.1232 63.6485 71.2602 61.1553 72.7592C58.1426 74.5702 54.3582 75.0892 51.5978 77.4782C50.93 78.0572 42.9457 84.9882 44.4297 85.7892C42.4708 84.5132 35.0059 80.7282 32.2158 79.5412C33.0321 79.9862 35.1691 70.8892 35.3472 70.1022C36.8164 63.4095 33.314 56.3156 36.8313 49.934Z" stroke="#231F20" stroke-width="0.531883" stroke-miterlimit="10" stroke-linecap="round" stroke-linejoin="round"/>
<path d="M41.9919 82.5993L56.714 58.0967C57.5005 56.8056 59.2814 56.5236 60.3945 57.5476C61.2849 58.3639 61.5817 59.3879 60.7506 60.7829C60.2312 61.6585 59.2072 62.1037 58.2129 61.896L54.5621 61.3914L48.2102 57.8296L49.9021 54.8318C51.2526 52.4276 48.1063 49.964 46.1474 51.9081C46.1177 51.9378 46.1028 51.9527 46.0732 51.9823C45.1975 52.8728 45.153 54.2975 45.9693 55.2473L48.2102 57.8296L35.9072 79.6903" stroke="#231F20" stroke-width="0.531883" stroke-miterlimit="10" stroke-linecap="round" stroke-linejoin="round"/>
<path d="M30.4141 80.5953C30.2212 80.9363 30.1766 81.3373 30.2657 81.6933C30.0876 81.7523 29.9243 81.8413 29.7759 81.9603C29.6275 82.0793 29.5088 82.2273 29.4049 82.4053C28.9894 83.1623 29.2862 84.1123 30.0579 84.5423L30.6367 84.8543C30.6515 86.0713 31.3045 87.2433 32.4769 87.8963L33.3674 88.3863C33.3525 88.7723 33.5455 89.1583 33.9165 89.3663L34.3172 89.5883C34.6882 89.7963 35.1186 89.7513 35.4451 89.5293L36.7363 90.2413C37.8938 90.8793 39.2592 90.8053 40.2832 90.1673L40.7284 90.4043C41.1143 90.6123 41.5447 90.6573 41.9305 90.5533C42.3164 90.4493 42.6577 90.1973 42.8655 89.8113C43.0584 89.4693 43.1029 89.0693 43.0139 88.7133C43.192 88.6533 43.3552 88.5643 43.5036 88.4453C43.652 88.3273 43.7708 88.1783 43.8746 88.0003C44.0824 87.6143 44.1121 87.1843 43.9934 86.7983C44.1863 86.7393 44.3792 86.6503 44.5425 86.5313C44.7057 86.4123 44.8393 86.2493 44.9432 86.0563C45.3587 85.2993 45.0619 84.3493 44.2902 83.9343L33.6345 78.0723C32.8628 77.6413 31.8982 77.9083 31.4826 78.6653C31.2748 79.0513 31.2452 79.4823 31.3639 79.8673C31.171 79.9273 30.978 80.0163 30.8148 80.1353C30.6664 80.2533 30.518 80.4023 30.4141 80.5953Z" fill="#1C1C1C"/>
<path d="M43.9948 86.7983L31.4395 79.7493" stroke="#F2F0EB" stroke-width="0.434746" stroke-miterlimit="10" stroke-linecap="round" stroke-linejoin="round"/>
<path d="M30.2817 81.6942L42.9557 88.8322" stroke="#F2F0EB" stroke-width="0.434746" stroke-miterlimit="10" stroke-linecap="round" stroke-linejoin="round"/>
<path d="M30.6387 84.8542L40.2406 90.2562" stroke="#F2F0EB" stroke-width="0.434746" stroke-miterlimit="10" stroke-linecap="round" stroke-linejoin="round"/>
<path d="M227.076 134.47L223.333 133.467L220.884 142.606L224.627 143.609L227.076 134.47Z" fill="white"/>
<path d="M229.654 124.848L225.911 123.845L223.532 132.724L227.275 133.727L229.654 124.848Z" fill="white"/>
<path d="M234.986 134.16L228.417 132.4L227.401 136.19L233.971 137.95L234.986 134.16Z" fill="white"/>
<path d="M237.617 126.981L230.387 125.044L229.372 128.834L236.602 130.771L237.617 126.981Z" fill="white"/>
<path d="M234.154 142.101L226.374 140.016L225.358 143.806L233.139 145.891L234.154 142.101Z" fill="white"/>
<path d="M224.483 151.774C215.308 149.315 209.852 139.73 212.34 130.442C214.829 121.155 224.347 115.582 233.522 118.041C242.697 120.499 248.153 130.084 245.665 139.372C243.176 148.659 233.658 154.232 224.483 151.774ZM233.054 119.787C224.796 117.574 216.305 122.546 214.065 130.905C211.836 139.226 216.73 147.825 224.951 150.027C233.209 152.24 241.71 147.231 243.94 138.909C246.18 130.55 241.275 121.989 233.054 119.787Z" fill="white"/>
</g>
<defs>
<clipPath id="clip0_152_370">
<rect width="442" height="266" fill="white"/>
</clipPath>
</defs>
</svg>
