<svg width="53" height="52" viewBox="0 0 53 52" fill="none" xmlns="http://www.w3.org/2000/svg">
<g clip-path="url(#clip0_2_635)">
<path d="M23.5952 26.083H17.9355V39.9002H23.5952V26.083Z" fill="#68B968"/>
<path d="M23.5952 11.5356H17.9355V24.9597H23.5952V11.5356Z" fill="#C9345D"/>
<path d="M34.6372 22.6567H24.7051V28.3858H34.6372V22.6567Z" fill="#1A1A1A"/>
<path d="M35.636 11.5356H24.7051V17.2647H35.636V11.5356Z" fill="#8A4996"/>
<path d="M36.4683 34.1709H24.7051V39.9H36.4683V34.1709Z" fill="#E0AC23"/>
<path d="M26.4801 51.4707C12.6084 51.4707 1.28906 40.0126 1.28906 25.9707C1.28906 11.9289 12.6084 0.470703 26.4801 0.470703C40.3518 0.470703 51.6711 11.9289 51.6711 25.9707C51.6711 40.0126 40.3518 51.4707 26.4801 51.4707ZM26.4801 3.11057C13.9955 3.11057 3.89694 13.333 3.89694 25.9707C3.89694 38.5522 14.051 48.8308 26.4801 48.8308C38.9646 48.8308 49.0632 38.5522 49.0632 25.9707C49.0632 13.333 38.9091 3.11057 26.4801 3.11057Z" fill="#AFAFAF"/>
</g>
<defs>
<clipPath id="clip0_2_635">
<rect width="52" height="51" fill="white" transform="translate(0.716797 0.617676)"/>
</clipPath>
</defs>
</svg>
