<svg width="652" height="146" viewBox="0 0 652 146" fill="none" xmlns="http://www.w3.org/2000/svg">
<g clip-path="url(#clip0_2_1147)">
<path d="M184.306 47.5361H223.487V58.2034H195.632V69.1891H220.12V79.8563H195.632V91.1605H223.793V101.669H184.153V47.5361H184.306Z" fill="#282828"/>
<path d="M230.682 80.8116C230.682 66.9601 239.406 59.4771 248.742 59.4771C254.711 59.4771 258.537 62.3429 261.139 65.6864V45.3071H272.465V101.668H261.139V95.7776C258.384 99.5987 254.558 102.465 248.742 102.465C239.559 102.465 230.682 94.8223 230.682 80.8116ZM261.292 80.8116C261.292 73.9655 256.853 69.3483 251.65 69.3483C246.446 69.3483 241.854 73.8062 241.854 80.9708C241.854 87.817 246.293 92.4341 251.65 92.4341C257.006 92.4341 261.292 87.9762 261.292 80.8116Z" fill="#282828"/>
<path d="M282.717 87.021V60.2732H294.043V83.3591C294.043 88.9315 296.645 91.7973 300.93 91.7973C305.216 91.7973 307.97 88.9315 307.97 83.3591V60.2732H319.296V101.669H307.817V95.7777C305.216 99.2804 301.848 102.465 296.186 102.465C287.615 102.465 282.717 96.5737 282.717 87.021Z" fill="#282828"/>
<path d="M330.775 47.5361H341.336L365.671 80.8116V47.5361H376.997V101.669H367.202L341.948 67.2785V101.669H330.775V47.5361Z" fill="#282828"/>
<path d="M386.791 80.9708C386.791 69.189 394.903 59.4771 406.535 59.4771C419.85 59.4771 425.972 70.1443 425.972 81.9261C425.972 82.8813 425.972 83.9958 425.819 84.9511H398.117C399.188 90.2051 402.862 93.071 407.912 93.071C411.739 93.071 414.494 91.7973 417.555 88.7722L423.983 94.6631C420.309 99.4395 414.953 102.465 407.759 102.465C395.515 102.624 386.791 93.867 386.791 80.9708ZM414.8 77.7865C414.187 72.5325 411.126 69.0298 406.382 69.0298C401.637 69.0298 398.729 72.5325 397.811 77.7865H414.8Z" fill="#282828"/>
<path d="M436.382 89.8868V70.3036H431.637V60.2732H436.382V49.7651H447.707V60.2732H457.043V70.3036H447.707V87.9762C447.707 90.6828 448.779 91.9566 451.381 91.9566C453.523 91.9566 455.36 91.4789 456.89 90.5236V99.9172C454.442 101.35 451.84 102.305 448.013 102.305C441.126 102.305 436.382 99.4396 436.382 89.8868Z" fill="#282828"/>
<path d="M462.553 60.2732H474.032L480.46 85.4289L487.959 60.114H497.755L505.407 85.4289L511.988 60.2732H523.161L510.764 101.987H500.51L492.857 76.5129L485.051 101.987H474.95L462.553 60.2732Z" fill="#282828"/>
<path d="M526.375 80.9708C526.375 69.0298 535.558 59.4771 547.955 59.4771C560.353 59.4771 569.383 69.0298 569.383 80.9708C569.383 92.9118 560.2 102.465 547.802 102.465C535.405 102.624 526.375 93.071 526.375 80.9708ZM558.21 80.9708C558.21 74.9207 553.924 69.5075 547.802 69.5075C541.374 69.5075 537.548 74.7615 537.548 80.9708C537.548 87.0209 541.833 92.4341 547.955 92.4341C554.384 92.4341 558.21 87.3393 558.21 80.9708Z" fill="#282828"/>
<path d="M577.953 60.2731H589.279V68.5521C591.575 62.8205 595.248 59.1586 601.982 59.477V71.7364H601.37C593.871 71.7364 589.279 76.5128 589.279 86.384V101.668H577.953V60.2731Z" fill="#282828"/>
<path d="M609.328 45.3071H620.654V75.3984L633.817 60.2731H647.285L632.286 76.5129L647.897 101.668H635.041L624.633 84.7919L620.654 89.0907V101.668H609.328V45.3071Z" fill="#282828"/>
<path d="M66.3026 73.4878H50.6914V112.654H66.3026V73.4878Z" fill="#68B968"/>
<path d="M66.3026 32.2516H50.6914V70.3035H66.3026V32.2516Z" fill="#C9345D"/>
<path d="M96.7594 63.7759H69.3633V80.0156H96.7594V63.7759Z" fill="#4A8ECB"/>
<path d="M99.5143 32.2516H69.3633V48.4913H99.5143V32.2516Z" fill="#8A4996"/>
<path d="M101.81 96.4146H69.3633V112.654H101.81V96.4146Z" fill="#E0AC23"/>
<path d="M74.2606 145.452C35.9978 145.452 4.77539 112.973 4.77539 73.1694C4.77539 33.3661 35.9978 0.886719 74.2606 0.886719C112.523 0.886719 143.746 33.3661 143.746 73.1694C143.746 112.973 112.523 145.452 74.2606 145.452ZM74.2606 8.36972C39.8241 8.36972 11.9688 37.3465 11.9688 73.1694C11.9688 108.833 39.9771 137.969 74.2606 137.969C108.697 137.969 136.552 108.833 136.552 73.1694C136.552 37.3465 108.544 8.36972 74.2606 8.36972Z" fill="#AFAFAF"/>
<path d="M180.602 18.9572C179.206 20.369 178.509 22.1152 178.509 24.1957C178.509 26.2762 179.206 28.0223 180.602 29.4341C181.997 30.8458 183.71 31.5517 185.741 31.5517C187.772 31.5517 189.485 30.8458 190.88 29.4341C192.276 28.0223 192.973 26.2762 192.973 24.1957C192.973 22.1152 192.276 20.369 190.88 18.9572C189.485 17.5455 187.772 16.8396 185.741 16.8396C183.71 16.8396 181.997 17.5455 180.602 18.9572ZM192.205 17.7312C193.98 19.5063 194.868 21.6611 194.868 24.1957C194.868 26.7302 193.98 28.885 192.205 30.6601C190.43 32.4351 188.276 33.3226 185.741 33.3226C183.206 33.3226 181.052 32.4351 179.277 30.6601C177.502 28.885 176.614 26.7302 176.614 24.1957C176.614 21.6611 177.502 19.5063 179.277 17.7312C181.052 15.9562 183.206 15.0687 185.741 15.0687C188.276 15.0687 190.43 15.9562 192.205 17.7312ZM209.828 27.2421C209.828 28.9511 209.25 30.3918 208.094 31.5641C206.938 32.7365 205.531 33.3226 203.871 33.3226C202.08 33.3226 200.618 32.6415 199.487 31.2793C198.356 29.9088 197.791 27.9728 197.791 25.4712C197.791 19.8737 199.859 16.7034 203.995 15.9603C204.895 15.8117 205.696 15.6177 206.397 15.3783C207.099 15.1389 207.57 14.9407 207.809 14.7839L208.181 14.5609L209.072 15.9603C208.395 16.5548 206.79 17.1038 204.255 17.6074C202.918 17.8798 201.836 18.5156 201.01 19.5145C200.193 20.5052 199.751 21.8551 199.685 23.5641C199.718 23.498 199.772 23.4113 199.846 23.304C199.929 23.1884 200.098 22.9985 200.354 22.7344C200.618 22.4619 200.907 22.2184 201.221 22.0037C201.535 21.789 201.939 21.595 202.435 21.4217C202.938 21.24 203.458 21.1492 203.995 21.1492C205.605 21.1492 206.979 21.7436 208.119 22.9325C209.258 24.1131 209.828 25.5496 209.828 27.2421ZM200.911 24.0842C200.094 24.9346 199.685 25.9872 199.685 27.2421C199.685 28.497 200.094 29.5497 200.911 30.4C201.737 31.2504 202.724 31.6756 203.871 31.6756C205.019 31.6756 206.001 31.2504 206.819 30.4C207.644 29.5497 208.057 28.497 208.057 27.2421C208.057 25.9872 207.644 24.9346 206.819 24.0842C206.001 23.2338 205.019 22.8087 203.871 22.8087C202.724 22.8087 201.737 23.2338 200.911 24.0842ZM216.23 23.7127C215.347 24.6456 214.905 25.7395 214.905 26.9944C214.905 28.2411 215.347 29.335 216.23 30.2762C217.122 31.2091 218.117 31.6756 219.215 31.6756C220.263 31.6756 221.2 31.2215 222.026 30.3133C222.86 29.3969 223.277 28.2906 223.277 26.9944C223.277 25.69 222.86 24.5837 222.026 23.6755C221.2 22.7591 220.263 22.3009 219.215 22.3009C218.117 22.3009 217.122 22.7715 216.23 23.7127ZM214.905 31.1678V38.4001H213.134V20.9015H214.905V22.8087C214.938 22.7591 214.996 22.6848 215.079 22.5857C215.169 22.4784 215.347 22.3009 215.611 22.0532C215.884 21.8056 216.177 21.5868 216.49 21.3969C216.804 21.1987 217.205 21.0254 217.692 20.8768C218.187 20.7199 218.695 20.6415 219.215 20.6415C220.767 20.6415 222.125 21.2648 223.289 22.5114C224.462 23.7581 225.048 25.2524 225.048 26.9944C225.048 28.7282 224.466 30.2184 223.302 31.465C222.137 32.7034 220.775 33.3226 219.215 33.3226C218.695 33.3226 218.191 33.2483 217.704 33.0997C217.225 32.9511 216.821 32.7736 216.49 32.5672C216.16 32.3608 215.871 32.1544 215.623 31.948C215.384 31.7334 215.202 31.5517 215.079 31.4031L214.905 31.1678ZM230.881 26.1028L235.574 25.335C235.574 24.4351 235.289 23.7044 234.72 23.143C234.15 22.5816 233.419 22.3009 232.528 22.3009C231.884 22.3009 231.277 22.4495 230.707 22.7467C230.146 23.0357 229.737 23.3329 229.481 23.6384L229.097 24.0718L227.958 22.9325C228.007 22.8664 228.073 22.7839 228.156 22.6848C228.247 22.5775 228.437 22.3959 228.726 22.1399C229.023 21.8757 229.333 21.6404 229.655 21.434C229.976 21.2276 230.398 21.046 230.918 20.8891C231.446 20.724 231.983 20.6415 232.528 20.6415C233.915 20.6415 235.062 21.0914 235.97 21.9913C236.887 22.8912 237.345 24.0058 237.345 25.335V33.075H235.574V31.4279C235.541 31.4774 235.487 31.5476 235.413 31.6384C235.347 31.721 235.19 31.8737 234.942 32.0966C234.703 32.3113 234.443 32.5053 234.162 32.6787C233.882 32.8438 233.51 32.9924 233.048 33.1245C232.594 33.2566 232.123 33.3226 231.636 33.3226C230.422 33.3226 229.399 32.9635 228.565 32.2452C227.739 31.527 227.326 30.7055 227.326 29.7808C227.326 28.7653 227.632 27.948 228.243 27.3288C228.854 26.7013 229.733 26.2927 230.881 26.1028ZM231.636 31.6756C232.784 31.6756 233.725 31.2999 234.459 30.5486C235.203 29.7973 235.574 28.8231 235.574 27.626V26.8582L231.388 27.626C229.869 27.915 229.105 28.6332 229.097 29.7808C229.097 30.3257 229.32 30.7798 229.766 31.1431C230.22 31.4981 230.843 31.6756 231.636 31.6756ZM248.751 24.0718C248.751 24.4764 248.685 24.8438 248.552 25.174C248.429 25.5042 248.272 25.7643 248.082 25.9542C247.9 26.1358 247.71 26.2927 247.512 26.4248C247.322 26.5486 247.165 26.6353 247.042 26.6848L246.843 26.7344C246.909 26.7509 246.996 26.7715 247.103 26.7963C247.219 26.8211 247.409 26.9036 247.673 27.044C247.946 27.1761 248.185 27.3412 248.391 27.5393C248.606 27.7292 248.8 28.0099 248.973 28.3814C249.155 28.753 249.246 29.1781 249.246 29.657C249.246 30.689 248.841 31.56 248.032 32.27C247.223 32.9718 246.067 33.3226 244.565 33.3226C243.987 33.3226 243.438 33.2483 242.918 33.0997C242.406 32.9511 241.977 32.7736 241.63 32.5672C241.283 32.3608 240.982 32.1544 240.726 31.948C240.478 31.7334 240.292 31.5517 240.168 31.4031L239.995 31.1678L241.134 30.0285C241.234 30.1441 241.37 30.2968 241.543 30.4867C241.725 30.6766 242.113 30.9243 242.707 31.2297C243.302 31.527 243.921 31.6756 244.565 31.6756C245.531 31.6756 246.257 31.4898 246.744 31.1183C247.231 30.7468 247.475 30.2597 247.475 29.657C247.475 29.046 247.227 28.5548 246.732 28.1833C246.245 27.8118 245.522 27.626 244.565 27.626H243.165V25.9789H244.565C245.291 25.9789 245.873 25.7932 246.311 25.4217C246.748 25.0419 246.967 24.5919 246.967 24.0718C246.967 23.5434 246.765 23.1183 246.36 22.7963C245.956 22.466 245.357 22.3009 244.565 22.3009C244.003 22.3009 243.467 22.4165 242.955 22.6477C242.451 22.8706 242.092 23.1017 241.877 23.3412L241.518 23.6879L240.243 22.4248C240.358 22.2927 240.528 22.1275 240.751 21.9294C240.973 21.7313 241.456 21.4671 242.199 21.1368C242.942 20.8066 243.731 20.6415 244.565 20.6415C245.803 20.6415 246.81 20.98 247.586 21.6569C248.363 22.3339 248.751 23.1389 248.751 24.0718ZM261.011 30.3257C261.886 29.4176 262.323 28.3071 262.323 26.9944C262.323 25.6735 261.886 24.563 261.011 23.6631C260.144 22.755 259.099 22.3009 257.878 22.3009C256.664 22.3009 255.62 22.755 254.744 23.6631C253.878 24.563 253.444 25.6693 253.444 26.982C253.444 28.2865 253.878 29.3969 254.744 30.3133C255.62 31.2215 256.664 31.6756 257.878 31.6756C259.099 31.6756 260.144 31.2256 261.011 30.3257ZM253.481 31.4898C252.276 30.2679 251.673 28.7695 251.673 26.9944C251.673 25.2111 252.276 23.7086 253.481 22.4867C254.695 21.2565 256.164 20.6415 257.89 20.6415C259.615 20.6415 261.081 21.2565 262.286 22.4867C263.492 23.7086 264.094 25.2111 264.094 26.9944C264.094 28.7695 263.492 30.2679 262.286 31.4898C261.081 32.7117 259.615 33.3226 257.89 33.3226C256.164 33.3226 254.695 32.7117 253.481 31.4898ZM267.277 20.9015H272.85C273.964 20.9015 274.856 21.2029 275.525 21.8056C276.193 22.4 276.528 23.1554 276.528 24.0718C276.528 24.5919 276.4 25.0667 276.144 25.496C275.896 25.917 275.644 26.2101 275.388 26.3752L275.005 26.6105C275.054 26.627 275.124 26.6518 275.215 26.6848C275.314 26.7179 275.479 26.8087 275.71 26.9573C275.95 27.0976 276.156 27.2669 276.33 27.465C276.511 27.6549 276.672 27.9315 276.813 28.2947C276.961 28.658 277.036 29.0667 277.036 29.5208C277.036 30.6188 276.693 31.4857 276.008 32.1214C275.322 32.7571 274.356 33.075 273.11 33.075H267.277V20.9015ZM273.11 27.3659H269.048V31.4279H273.11C273.803 31.4279 274.336 31.2504 274.707 30.8954C275.079 30.5404 275.265 30.0409 275.265 29.3969C275.265 28.753 275.079 28.2535 274.707 27.8985C274.336 27.5435 273.803 27.3659 273.11 27.3659ZM272.85 25.8427C274.121 25.8427 274.757 25.2937 274.757 24.1957C274.757 23.0976 274.121 22.5486 272.85 22.5486H269.048V25.8427H272.85ZM283.116 26.1028L287.81 25.335C287.81 24.4351 287.525 23.7044 286.955 23.143C286.385 22.5816 285.655 22.3009 284.763 22.3009C284.119 22.3009 283.512 22.4495 282.943 22.7467C282.381 23.0357 281.973 23.3329 281.717 23.6384L281.333 24.0718L280.193 22.9325C280.243 22.8664 280.309 22.7839 280.392 22.6848C280.482 22.5775 280.672 22.3959 280.961 22.1399C281.258 21.8757 281.568 21.6404 281.89 21.434C282.212 21.2276 282.633 21.046 283.153 20.8891C283.682 20.724 284.218 20.6415 284.763 20.6415C286.15 20.6415 287.298 21.0914 288.206 21.9913C289.122 22.8912 289.58 24.0058 289.58 25.335V33.075H287.81V31.4279C287.777 31.4774 287.723 31.5476 287.649 31.6384C287.583 31.721 287.426 31.8737 287.178 32.0966C286.939 32.3113 286.678 32.5053 286.398 32.6787C286.117 32.8438 285.746 32.9924 285.283 33.1245C284.829 33.2566 284.359 33.3226 283.871 33.3226C282.658 33.3226 281.634 32.9635 280.8 32.2452C279.975 31.527 279.562 30.7055 279.562 29.7808C279.562 28.7653 279.867 27.948 280.478 27.3288C281.089 26.7013 281.968 26.2927 283.116 26.1028ZM283.871 31.6756C285.019 31.6756 285.96 31.2999 286.695 30.5486C287.438 29.7973 287.81 28.8231 287.81 27.626V26.8582L283.624 27.626C282.105 27.915 281.341 28.6332 281.333 29.7808C281.333 30.3257 281.556 30.7798 282.001 31.1431C282.456 31.4981 283.079 31.6756 283.871 31.6756ZM292.107 22.5486V20.9015H302.497V22.5486H298.187V33.075H296.416V22.5486H292.107ZM315.822 27.6508L305.927 27.626C305.993 28.7241 306.443 29.6735 307.277 30.4743C308.119 31.2752 309.106 31.6756 310.237 31.6756C310.996 31.6756 311.702 31.5063 312.355 31.1678C313.007 30.8293 313.469 30.4908 313.742 30.1523L314.175 29.657L315.314 30.7963C315.265 30.8624 315.19 30.9573 315.091 31.0811C315.001 31.1967 314.794 31.399 314.472 31.6879C314.158 31.9687 313.816 32.2205 313.444 32.4434C313.081 32.658 312.606 32.8603 312.02 33.0502C311.442 33.2318 310.848 33.3226 310.237 33.3226C308.577 33.3226 307.149 32.7076 305.952 31.4774C304.755 30.239 304.156 28.7406 304.156 26.982C304.156 25.2235 304.747 23.7292 305.927 22.4991C307.116 21.2607 308.511 20.6415 310.113 20.6415C311.772 20.6415 313.159 21.2194 314.274 22.3752C315.389 23.5228 315.946 24.9758 315.946 26.7344L315.822 27.6508ZM312.838 23.3783C312.086 22.66 311.178 22.3009 310.113 22.3009C309.048 22.3009 308.119 22.6766 307.327 23.4279C306.534 24.1791 306.068 25.0708 305.927 26.1028H314.175C314.043 25.0047 313.597 24.0966 312.838 23.3783ZM320.379 20.9015H329.259V33.075H327.475V22.5486H322.15V24.4557C322.15 26.2473 322.059 27.7416 321.878 28.9387C321.704 30.1276 321.44 31.0357 321.085 31.6632C320.73 32.2824 320.338 32.7158 319.909 32.9635C319.479 33.2029 318.959 33.3226 318.348 33.3226C318.142 33.3226 317.931 33.302 317.717 33.2607C317.51 33.2194 317.358 33.174 317.259 33.1245L317.085 33.075V31.304C317.424 31.4692 317.762 31.5517 318.101 31.5517C318.621 31.5517 319.029 31.4031 319.327 31.1059C319.624 30.8087 319.872 30.1234 320.07 29.0502C320.276 27.9769 320.379 26.4454 320.379 24.4557V20.9015ZM335.079 31.4279H338.274C339.067 31.4279 339.702 31.205 340.181 30.7592C340.668 30.3051 340.912 29.723 340.912 29.013C340.912 28.303 340.668 27.7251 340.181 27.2793C339.702 26.8334 339.058 26.6105 338.249 26.6105H335.079V31.4279ZM341.494 26.078C342.287 26.8211 342.683 27.8035 342.683 29.0254C342.683 30.239 342.291 31.2174 341.506 31.9604C340.722 32.7034 339.645 33.075 338.274 33.075H333.308V20.9015H335.079V24.9635H338.249C339.62 24.9635 340.701 25.335 341.494 26.078ZM354.609 33.075V27.7499H347.636V33.075H345.866V20.9015H347.636V26.1028H354.609V20.9015H356.392V33.075H354.609ZM373.767 20.9015V33.075H371.983V20.9015H373.767ZM362.225 31.4279H365.296C366.089 31.4279 366.724 31.205 367.203 30.7592C367.69 30.3051 367.934 29.723 367.934 29.013C367.934 28.303 367.69 27.7251 367.203 27.2793C366.724 26.8334 366.08 26.6105 365.271 26.6105H362.225V31.4279ZM368.516 26.078C369.308 26.8211 369.705 27.8035 369.705 29.0254C369.705 30.239 369.312 31.2174 368.528 31.9604C367.744 32.7034 366.666 33.075 365.296 33.075H360.454V20.9015H362.225V24.9635H365.271C366.642 24.9635 367.723 25.335 368.516 26.078ZM381.643 16.9139C381.998 17.2854 382.497 17.4712 383.141 17.4712C383.785 17.4712 384.285 17.2854 384.64 16.9139C384.995 16.5424 385.172 16.0099 385.172 15.3164H386.559C386.559 16.3318 386.241 17.1574 385.606 17.7932C384.978 18.4289 384.157 18.7467 383.141 18.7467C382.126 18.7467 381.3 18.4289 380.664 17.7932C380.029 17.1574 379.711 16.3318 379.711 15.3164H381.11C381.11 16.0099 381.288 16.5424 381.643 16.9139ZM386.943 20.9015H388.466V33.075H386.683V23.948L379.327 33.075H377.816V20.9015H379.587V30.0285L386.943 20.9015ZM406.101 33.075V22.5734H399.129V33.075H397.358V20.9015H407.884V33.075H406.101ZM420.392 30.3257C421.267 29.4176 421.705 28.3071 421.705 26.9944C421.705 25.6735 421.267 24.563 420.392 23.6631C419.525 22.755 418.481 22.3009 417.259 22.3009C416.045 22.3009 415.001 22.755 414.126 23.6631C413.259 24.563 412.826 25.6693 412.826 26.982C412.826 28.2865 413.259 29.3969 414.126 30.3133C415.001 31.2215 416.045 31.6756 417.259 31.6756C418.481 31.6756 419.525 31.2256 420.392 30.3257ZM412.863 31.4898C411.657 30.2679 411.055 28.7695 411.055 26.9944C411.055 25.2111 411.657 23.7086 412.863 22.4867C414.076 21.2565 415.546 20.6415 417.271 20.6415C418.997 20.6415 420.462 21.2565 421.668 22.4867C422.873 23.7086 423.476 25.2111 423.476 26.9944C423.476 28.7695 422.873 30.2679 421.668 31.4898C420.462 32.7117 418.997 33.3226 417.271 33.3226C415.546 33.3226 414.076 32.7117 412.863 31.4898ZM429.754 23.7127C428.871 24.6456 428.429 25.7395 428.429 26.9944C428.429 28.2411 428.871 29.335 429.754 30.2762C430.646 31.2091 431.641 31.6756 432.739 31.6756C433.787 31.6756 434.724 31.2215 435.55 30.3133C436.384 29.3969 436.801 28.2906 436.801 26.9944C436.801 25.69 436.384 24.5837 435.55 23.6755C434.724 22.7591 433.787 22.3009 432.739 22.3009C431.641 22.3009 430.646 22.7715 429.754 23.7127ZM428.429 31.1678V38.4001H426.658V20.9015H428.429V22.8087C428.462 22.7591 428.52 22.6848 428.603 22.5857C428.694 22.4784 428.871 22.3009 429.135 22.0532C429.408 21.8056 429.701 21.5868 430.014 21.3969C430.328 21.1987 430.729 21.0254 431.216 20.8768C431.711 20.7199 432.219 20.6415 432.739 20.6415C434.291 20.6415 435.649 21.2648 436.813 22.5114C437.986 23.7581 438.572 25.2524 438.572 26.9944C438.572 28.7282 437.99 30.2184 436.826 31.465C435.662 32.7034 434.299 33.3226 432.739 33.3226C432.219 33.3226 431.715 33.2483 431.228 33.0997C430.749 32.9511 430.345 32.7736 430.014 32.5672C429.684 32.3608 429.395 32.1544 429.148 31.948C428.908 31.7334 428.727 31.5517 428.603 31.4031L428.429 31.1678ZM440.219 22.5486V20.9015H450.609V22.5486H446.299V33.075H444.528V22.5486H440.219ZM455.823 26.1028L460.516 25.335C460.516 24.4351 460.231 23.7044 459.662 23.143C459.092 22.5816 458.361 22.3009 457.47 22.3009C456.826 22.3009 456.219 22.4495 455.649 22.7467C455.088 23.0357 454.679 23.3329 454.423 23.6384L454.039 24.0718L452.9 22.9325C452.95 22.8664 453.016 22.7839 453.098 22.6848C453.189 22.5775 453.379 22.3959 453.668 22.1399C453.965 21.8757 454.275 21.6404 454.597 21.434C454.919 21.2276 455.34 21.046 455.86 20.8891C456.388 20.724 456.925 20.6415 457.47 20.6415C458.857 20.6415 460.004 21.0914 460.912 21.9913C461.829 22.8912 462.287 24.0058 462.287 25.335V33.075H460.516V31.4279C460.483 31.4774 460.429 31.5476 460.355 31.6384C460.289 31.721 460.132 31.8737 459.885 32.0966C459.645 32.3113 459.385 32.5053 459.104 32.6787C458.824 32.8438 458.452 32.9924 457.99 33.1245C457.536 33.2566 457.065 33.3226 456.578 33.3226C455.364 33.3226 454.341 32.9635 453.507 32.2452C452.681 31.527 452.268 30.7055 452.268 29.7808C452.268 28.7653 452.574 27.948 453.185 27.3288C453.796 26.7013 454.675 26.2927 455.823 26.1028ZM456.578 31.6756C457.726 31.6756 458.667 31.2999 459.402 30.5486C460.145 29.7973 460.516 28.8231 460.516 27.626V26.8582L456.33 27.626C454.811 27.915 454.048 28.6332 454.039 29.7808C454.039 30.3257 454.262 30.7798 454.708 31.1431C455.162 31.4981 455.785 31.6756 456.578 31.6756ZM467.6 20.9015H476.479V33.075H474.696V22.5486H469.371V24.4557C469.371 26.2473 469.28 27.7416 469.098 28.9387C468.925 30.1276 468.661 31.0357 468.306 31.6632C467.951 32.2824 467.558 32.7158 467.129 32.9635C466.7 33.2029 466.18 33.3226 465.569 33.3226C465.362 33.3226 465.152 33.302 464.937 33.2607C464.731 33.2194 464.578 33.174 464.479 33.1245L464.306 33.075V31.304C464.644 31.4692 464.983 31.5517 465.321 31.5517C465.841 31.5517 466.25 31.4031 466.547 31.1059C466.844 30.8087 467.092 30.1234 467.29 29.0502C467.497 27.9769 467.6 26.4454 467.6 24.4557V20.9015Z" fill="black"/>
</g>
<defs>
<clipPath id="clip0_2_1147">
<rect width="650.966" height="144.565" fill="white" transform="translate(0.853516 0.886719)"/>
</clipPath>
</defs>
</svg>
