<svg width="71" height="61" viewBox="0 0 71 61" fill="none" xmlns="http://www.w3.org/2000/svg">
<path d="M25.2778 47.6489L25.1717 48.0068L21.8316 59.275L17.483 46.956L17.399 46.7181L17.1579 46.6443C7.58163 43.7128 0.617188 34.8064 0.617188 24.283C0.617188 11.3572 11.0861 0.888611 23.9973 0.888611H46.295C59.2063 0.888611 69.6751 11.3574 69.6751 24.2687C69.6751 37.1801 59.2063 47.6489 46.295 47.6489H25.6511H25.2778ZM40.3877 26.1887C39.9093 25.7103 39.9093 24.9346 40.3877 24.4562C40.8661 23.9778 41.6418 23.9778 42.1202 24.4562C42.5986 24.9346 42.5986 25.7103 42.1202 26.1887C41.6418 26.6671 40.8661 26.6671 40.3877 26.1887ZM39.6806 23.7491C38.8117 24.6181 38.8117 26.0269 39.6806 26.8958C40.5495 27.7648 41.9584 27.7648 42.8273 26.8958C43.6962 26.0269 43.6962 24.6181 42.8273 23.7491C41.9584 22.8802 40.5495 22.8802 39.6806 23.7491ZM33.8265 26.1965C33.3481 25.718 33.348 24.9424 33.8265 24.464C34.3049 23.9856 35.0805 23.9856 35.559 24.464C36.0374 24.9424 36.0374 25.718 35.559 26.1965C35.0805 26.6749 34.3049 26.6749 33.8265 26.1965ZM33.1194 23.7569C32.2504 24.6258 32.2504 26.0346 33.1194 26.9036C33.9883 27.7725 35.3971 27.7725 36.2661 26.9036C37.135 26.0346 37.135 24.6258 36.2661 23.7569C35.3971 22.8879 33.9883 22.8879 33.1194 23.7569ZM27.2556 26.1939C26.7772 25.7155 26.7772 24.9398 27.2556 24.4614C27.734 23.983 28.5097 23.983 28.9881 24.4614C29.4665 24.9398 29.4665 25.7155 28.9881 26.1939C28.5097 26.6723 27.734 26.6723 27.2556 26.1939ZM26.5485 23.7543C25.6795 24.6233 25.6795 26.0321 26.5485 26.901C27.4174 27.77 28.8262 27.77 29.6952 26.901C30.5641 26.0321 30.5641 24.6233 29.6952 23.7543C28.8262 22.8854 27.4174 22.8854 26.5485 23.7543Z" fill="#68B968" stroke="white"/>
</svg>
