<svg width="160" height="63" viewBox="0 0 160 63" fill="none" xmlns="http://www.w3.org/2000/svg">
<g clip-path="url(#clip0)">
<path d="M54.547 13.7666H56.6633L58.7291 20.1004C58.9757 20.8395 59.1615 21.5788 59.2536 21.8723H59.2837C59.3627 21.5954 59.5769 20.8395 59.8256 20.1004L61.954 13.7666H64.0522L65.4714 24.03H63.2501L62.5862 18.7285C62.4932 17.9728 62.4329 17.4346 62.4181 17.2344H62.3862C62.3391 17.4646 62.1863 18.02 61.9698 18.6985L60.2276 24.03H58.0813L56.3384 18.7128C56.138 18.0656 55.9843 17.45 55.9206 17.2344H55.8895C55.8755 17.4646 55.8295 18.0656 55.7528 18.7442L55.0876 24.03H53.1289L54.547 13.7666Z" fill="#197CB5"/>
<path d="M54.6189 45.231H56.6375V50.7161C56.6375 51.5021 56.5942 52.1962 56.5778 52.3177H56.6076C56.7008 52.1509 57.0871 51.4871 57.6881 50.594L61.3449 45.231H63.5365V55.4925H61.515V49.5608C61.515 48.9138 61.5619 48.3446 61.5619 48.2054H61.5291C61.4225 48.4054 61.0974 48.9603 60.5441 49.7463L56.6076 55.4925H54.6189V45.231Z" fill="#197CB5"/>
<path d="M65.781 45.231H67.9584V49.2684H72.5548V45.231H74.7307V55.4925H72.5548V51.0556H67.9584V55.4925H65.781V45.231Z" fill="#197CB5"/>
<path d="M76.3428 50.3462C76.3428 47.5577 78.1786 45.0449 81.6505 45.0449C82.9928 45.0449 83.9331 45.3375 84.7354 45.8627L83.7645 47.4496C83.1926 47.0783 82.561 46.8492 81.62 46.8492C79.6909 46.8492 78.6574 48.3892 78.6574 50.2852C78.6574 52.2433 79.6447 53.8604 81.6505 53.8604C82.7609 53.8604 83.4394 53.4757 83.9801 53.0753L84.8756 54.6011C84.3499 55.0776 83.1188 55.6786 81.62 55.6786C78.1167 55.6786 76.3428 53.1352 76.3428 50.3462Z" fill="#197CB5"/>
<path d="M88.1252 47.0172H85.2856V45.231H93.1384V47.0172H90.3175V55.4922H88.1252V47.0172Z" fill="#197CB5"/>
<path d="M94.3206 45.231H96.3421V50.7161C96.3421 51.5021 96.2951 52.1962 96.2824 52.3177H96.313C96.4047 52.1509 96.7902 51.4871 97.392 50.594L101.05 45.231H103.24V55.4925H101.22V49.5608C101.22 48.9138 101.266 48.3446 101.266 48.2054H101.235C101.126 48.4054 100.804 48.9603 100.246 49.7463L96.313 55.4925H94.3206V45.231Z" fill="#197CB5"/>
<path d="M107.259 47.0172H104.421V45.231H112.273V47.0172H109.451V55.4922H107.259V47.0172Z" fill="#197CB5"/>
<path d="M113.226 55.3991L113.519 53.7844C113.642 53.8312 113.86 53.8596 114.121 53.8596C114.907 53.8596 115.323 53.3531 115.696 52.5356L115.848 52.1504L112.731 45.231H114.831L116.912 49.9921L118.997 45.231H121.096L117.624 52.935C116.804 54.7686 115.972 55.5391 114.26 55.5391C113.765 55.5391 113.396 55.4612 113.226 55.3991Z" fill="#197CB5"/>
<path d="M124.237 47.0172H121.396V45.231H129.251V47.0172H126.426V55.4922H124.237V47.0172Z" fill="#197CB5"/>
<path d="M74.6749 18.9146C74.6749 17.0036 73.78 15.3387 71.7282 15.3387C69.661 15.3387 68.6873 16.9419 68.6873 18.8521C68.6873 20.7796 69.6299 22.4579 71.6819 22.4579C73.7499 22.4579 74.6749 20.8245 74.6749 18.9146ZM66.3738 18.9146C66.3738 16.1253 68.2408 13.5815 71.6819 13.5815C75.1224 13.5815 76.9726 16.0939 76.9726 18.8521C76.9726 21.6415 75.1693 24.2151 71.7282 24.2151C68.2869 24.2151 66.3738 21.6878 66.3738 18.9146Z" fill="#197CB5"/>
<path d="M77.9841 18.8832C77.9841 16.0939 79.8217 13.5815 83.2929 13.5815C84.6337 13.5815 85.5762 13.8759 86.3785 14.3989L85.4062 15.9868C84.8357 15.6159 84.2012 15.3847 83.2616 15.3847C81.334 15.3847 80.2975 16.9255 80.2975 18.8217C80.2975 20.7796 81.287 22.3964 83.2929 22.3964C84.4025 22.3964 85.0811 22.0112 85.6232 21.6115L86.5172 23.1365C85.9923 23.6138 84.7589 24.2148 83.2616 24.2148C79.7587 24.2148 77.9841 21.672 77.9841 18.8832Z" fill="#197CB5"/>
<path d="M87.822 13.7666H89.983V18.0047H90.7086L93.7166 13.7666H96.0476L92.481 18.5282C92.836 18.8516 93.1924 19.3612 93.6704 20.1157C94.5816 21.626 94.9038 22.2582 95.6599 22.2582H95.8157L95.8016 24.03H94.9038C93.6853 24.03 93.1462 23.4901 92.1589 21.8414C91.3245 20.4851 91.0016 19.7152 90.3685 19.7152H89.983V24.03H87.822V13.7666Z" fill="#197CB5"/>
<path d="M104.649 18.9146C104.649 17.0036 103.756 15.3387 101.704 15.3387C99.6361 15.3387 98.6637 16.9419 98.6637 18.8521C98.6637 20.7796 99.6048 22.4579 101.658 22.4579C103.725 22.4579 104.649 20.8245 104.649 18.9146ZM96.3491 18.9146C96.3491 16.1253 98.2148 13.5815 101.658 13.5815C105.097 13.5815 106.949 16.0939 106.949 18.8521C106.949 21.6415 105.144 24.2151 101.704 24.2151C98.2611 24.2151 96.3491 21.6878 96.3491 18.9146Z" fill="#197CB5"/>
<path d="M111.863 22.3664C113.113 22.3664 113.775 21.9812 113.775 20.9946C113.775 20.0394 113.22 19.5461 111.955 19.5461H110.719V22.3664H111.863ZM111.725 17.9903C112.897 17.9903 113.406 17.5737 113.406 16.6643C113.406 15.817 112.85 15.4319 111.771 15.4319H110.719V17.9903H111.725ZM108.576 13.7676H112.002C113.899 13.7676 115.55 14.3844 115.55 16.3252C115.55 17.6512 114.841 18.3904 113.731 18.6823V18.7137C114.949 18.8987 115.982 19.7163 115.982 21.1798C115.982 23.2752 114.301 24.0312 111.955 24.0312H108.576V13.7676Z" fill="#197CB5"/>
<path d="M116.931 18.8832C116.931 16.0939 118.77 13.5815 122.24 13.5815C123.582 13.5815 124.524 13.8759 125.326 14.3989L124.353 15.9868C123.784 15.6159 123.149 15.3847 122.208 15.3847C120.282 15.3847 119.246 16.9255 119.246 18.8217C119.246 20.7796 120.235 22.3964 122.24 22.3964C123.352 22.3964 124.029 22.0112 124.571 21.6115L125.465 23.1365C124.941 23.6138 123.706 24.2148 122.208 24.2148C118.707 24.2148 116.931 21.672 116.931 18.8832Z" fill="#197CB5"/>
<path d="M126.771 13.7666H128.932V18.0047H129.657L132.666 13.7666H134.994L131.43 18.5282C131.788 18.8516 132.141 19.3612 132.62 20.1157C133.53 21.626 133.853 22.2582 134.611 22.2582H134.764L134.749 24.03H133.853C132.634 24.03 132.095 23.4901 131.108 21.8414C130.274 20.4851 129.95 19.7152 129.317 19.7152H128.932V24.03H126.771V13.7666Z" fill="#197CB5"/>
<path d="M136.299 13.7666H138.32V19.2531C138.32 20.0383 138.275 20.7324 138.259 20.8553H138.292C138.383 20.6861 138.768 20.023 139.37 19.1304L143.028 13.7666H145.218V24.03H143.198V18.0971C143.198 17.45 143.243 16.8789 143.243 16.7408H143.213C143.104 16.9414 142.779 17.4957 142.223 18.2816L138.292 24.03H136.299V13.7666Z" fill="#197CB5"/>
<path d="M149.331 10.8247H151.013C151.06 11.4407 151.366 11.8262 151.939 11.8262C152.493 11.8262 152.804 11.4407 152.863 10.8247H154.529C154.392 12.4429 153.203 13.1511 151.939 13.1511C150.674 13.1511 149.485 12.4429 149.331 10.8247ZM147.463 13.7675H149.485V19.254C149.485 20.0392 149.438 20.7333 149.424 20.8562H149.455C149.545 20.687 149.931 20.024 150.535 19.1312L154.191 13.7675H156.381V24.031H154.359V18.0979C154.359 17.4508 154.405 16.8797 154.405 16.7417H154.375C154.268 16.9422 153.943 17.4966 153.388 18.2824L149.455 24.031H147.463V13.7675Z" fill="#197CB5"/>
<path d="M61.4597 34.6455C61.4597 32.7334 60.5667 31.0695 58.5134 31.0695C56.4456 31.0695 55.474 32.6726 55.474 34.5847C55.474 36.511 56.4155 38.1886 58.4673 38.1886C60.5347 38.1886 61.4597 36.5573 61.4597 34.6455ZM53.1597 34.6455C53.1597 31.8568 55.028 29.3135 58.4673 29.3135C61.9075 29.3135 63.7595 31.8247 63.7595 34.5847C63.7595 37.3727 61.9539 39.9459 58.5134 39.9459C55.072 39.9459 53.1597 37.4193 53.1597 34.6455Z" fill="#197CB5"/>
<path d="M66.9627 31.2864H64.1233V29.498H71.9768V31.2864H69.1522V39.7604H66.9627V31.2864Z" fill="#197CB5"/>
<path d="M73.1587 29.498H75.3192V33.736H76.044L79.0532 29.498H81.3825L77.8198 34.2605C78.1725 34.5849 78.5285 35.0911 79.0066 35.8481C79.9171 37.356 80.2409 37.9899 80.9977 37.9899H81.1513L81.1372 39.7606H80.2409C79.0232 39.7606 78.4818 39.2221 77.495 37.5733C76.662 36.2175 76.3372 35.4466 75.7052 35.4466H75.3192V39.7606H73.1587V29.498Z" fill="#197CB5"/>
<path d="M85.8355 34.4599C87.2083 34.4599 87.7937 33.9055 87.7937 32.7641C87.7937 31.7308 87.224 31.1625 85.881 31.1625H84.8624V34.4599H85.8355ZM82.6873 29.498H86.051C88.2888 29.498 89.9852 30.5302 89.9852 32.7331C89.9852 34.9698 88.3649 36.1083 85.8184 36.1083H84.8624V39.7604H82.6873V29.498Z" fill="#197CB5"/>
<path d="M100.565 29.498H102.74V39.7606H100.565V29.498ZM94.7941 38.1138C96.1668 38.1138 96.7686 37.5415 96.7686 36.4183C96.7686 35.3697 96.1974 34.8148 94.8552 34.8148H93.683V38.1138H94.7941ZM91.5063 29.498H93.683V33.1509H95.026C97.2473 33.1509 98.943 34.1815 98.943 36.3722C98.943 38.6053 97.3241 39.7606 94.7791 39.7606H91.5063V29.498Z" fill="#197CB5"/>
<path d="M106.759 31.2864H103.919V29.498H111.771V31.2864H108.95V39.7604H106.759V31.2864Z" fill="#197CB5"/>
<path d="M122.012 29.498H124.19V39.7606H122.012V29.498ZM116.242 38.1138C117.616 38.1138 118.218 37.5415 118.218 36.4183C118.218 35.3697 117.646 34.8148 116.304 34.8148H115.133V38.1138H116.242ZM112.956 29.498H115.133V33.1509H116.473C118.697 33.1509 120.393 34.1815 120.393 36.3722C120.393 38.6053 118.771 39.7606 116.227 39.7606H112.956V29.498Z" fill="#197CB5"/>
<path d="M128.298 26.5547H129.98C130.026 27.1709 130.336 27.5574 130.907 27.5574C131.462 27.5574 131.771 27.1709 131.832 26.5547H133.499C133.36 28.1713 132.172 28.8822 130.907 28.8822C129.642 28.8822 128.453 28.1713 128.298 26.5547ZM126.431 29.4981H128.453V34.9852C128.453 35.7693 128.406 36.4642 128.392 36.586H128.422C128.515 36.4184 128.899 35.7542 129.503 34.8613L133.16 29.4981H135.35V39.7608H133.327V33.828C133.327 33.181 133.374 32.6127 133.374 32.4738H133.344C133.236 32.673 132.912 33.2276 132.356 34.0146L128.422 39.7608H126.431V29.4981Z" fill="#197CB5"/>
<path d="M26.4397 39.1147V24.478H23.8199L23.1893 18.2491C31.8975 19.6116 38.5558 27.2549 38.5558 36.1785C38.5558 40.8435 36.7729 45.2709 33.6089 48.6235V36.7958L26.4397 39.1147ZM31.4042 57.0366H30.3774V41.29L20.3837 44.7508L10.3889 41.29V57.0366H9.3601V39.8234L16.5269 42.1448V26.682H18.9312L20.3811 12.4449L21.8287 26.682H24.2336V42.1448L31.4042 39.8234V57.0366ZM28.1711 59.0306L21.4831 58.0003V46.702L28.1711 44.3861V59.0306ZM19.276 58.0022L12.5934 59.0306V44.3861L19.276 46.6989V58.0022ZM2.2047 36.1785C2.2047 27.2219 8.8472 19.6063 17.5724 18.2491L16.9417 24.478H14.3179V39.1147L7.15402 36.7958V48.6204C3.98746 45.2745 2.2047 40.8673 2.2047 36.1785ZM40.7632 36.1785C40.7632 25.9816 33.0025 17.2638 22.9567 15.9882L21.785 4.46087L23.6429 2.6217L20.3811 -0.606934L17.1221 2.62112L18.9744 4.45832L17.8021 15.9882C7.74185 17.2607 0 25.9391 0 36.1785C0 42.1837 2.60141 47.7781 7.15402 51.6549V59.2408H10.3889V61.5996L20.3837 60.0639L30.3774 61.5996V59.2408H33.6089V51.6579C38.1534 47.7798 40.7632 42.1534 40.7632 36.1785Z" fill="#FF6600"/>
</g>
<defs>
<clipPath id="clip0">
<rect width="160" height="63" fill="white"/>
</clipPath>
</defs>
</svg>
