<svg width="237" height="52" viewBox="0 0 237 52" fill="none" xmlns="http://www.w3.org/2000/svg">
<g clip-path="url(#clip0_2_635)">
<path d="M67.2254 17.075H81.43V20.8382H71.3314V24.7137H80.2093V28.4769H71.3314V32.4648H81.541V36.1719H67.1699V17.075H67.2254Z" fill="#282828"/>
<path d="M84.0371 28.8139C84.0371 23.9273 87.1998 21.2875 90.5845 21.2875C92.7485 21.2875 94.1357 22.2985 95.079 23.478V16.2886H99.185V36.1718H95.079V34.0936C94.0802 35.4417 92.693 36.4527 90.5845 36.4527C87.2553 36.4527 84.0371 33.7566 84.0371 28.8139ZM95.1345 28.8139C95.1345 26.3987 93.5253 24.7699 91.6388 24.7699C89.7522 24.7699 88.0876 26.3425 88.0876 28.8701C88.0876 31.2853 89.6968 32.9141 91.6388 32.9141C93.5808 32.9141 95.1345 31.3414 95.1345 28.8139Z" fill="#282828"/>
<path d="M102.904 31.0045V21.5684H107.01V29.7126C107.01 31.6785 107.954 32.6895 109.507 32.6895C111.061 32.6895 112.06 31.6785 112.06 29.7126V21.5684H116.166V36.1719H112.004V34.0937C111.061 35.3294 109.84 36.4527 107.787 36.4527C104.68 36.4527 102.904 34.3745 102.904 31.0045Z" fill="#282828"/>
<path d="M120.326 17.075H124.155L132.977 28.8139V17.075H137.083V36.1719H133.532L124.377 24.0397V36.1719H120.326V17.075Z" fill="#282828"/>
<path d="M140.635 28.8702C140.635 24.7138 143.576 21.2876 147.793 21.2876C152.62 21.2876 154.839 25.0508 154.839 29.2072C154.839 29.5442 154.839 29.9374 154.784 30.2744H144.741C145.129 32.1279 146.461 33.1389 148.292 33.1389C149.679 33.1389 150.678 32.6896 151.788 31.6224L154.118 33.7006C152.786 35.3856 150.844 36.4528 148.236 36.4528C143.798 36.509 140.635 33.4198 140.635 28.8702ZM150.789 27.7468C150.567 25.8933 149.457 24.6576 147.737 24.6576C146.017 24.6576 144.963 25.8933 144.63 27.7468H150.789Z" fill="#282828"/>
<path d="M158.613 32.0155V25.1069H156.893V21.5684H158.613V17.8613H162.719V21.5684H166.103V25.1069H162.719V31.3415C162.719 32.2963 163.107 32.7457 164.05 32.7457C164.827 32.7457 165.493 32.5772 166.048 32.2402V35.5541C165.16 36.0596 164.217 36.3966 162.83 36.3966C160.333 36.3966 158.613 35.3856 158.613 32.0155Z" fill="#282828"/>
<path d="M168.1 21.5684H172.261L174.592 30.4428L177.31 21.5122H180.862L183.636 30.4428L186.022 21.5684H190.072L185.578 36.2842H181.86L179.086 27.2974L176.256 36.2842H172.594L168.1 21.5684Z" fill="#282828"/>
<path d="M191.239 28.8702C191.239 24.6576 194.568 21.2876 199.062 21.2876C203.557 21.2876 206.83 24.6576 206.83 28.8702C206.83 33.0828 203.501 36.4528 199.007 36.4528C194.512 36.509 191.239 33.1389 191.239 28.8702ZM202.78 28.8702C202.78 26.7358 201.226 24.8261 199.007 24.8261C196.676 24.8261 195.289 26.6797 195.289 28.8702C195.289 31.0046 196.843 32.9142 199.062 32.9142C201.393 32.9142 202.78 31.1169 202.78 28.8702Z" fill="#282828"/>
<path d="M209.938 21.5684H214.044V24.4891C214.876 22.4671 216.208 21.1752 218.649 21.2875V25.6124H218.427C215.708 25.6124 214.044 27.2975 214.044 30.7798V36.1719H209.938V21.5684Z" fill="#282828"/>
<path d="M221.312 16.2886H225.418V26.9042L230.19 21.5683H235.073L229.635 27.2974L235.295 36.1718H230.634L226.861 30.2181L225.418 31.7346V36.1718H221.312V16.2886Z" fill="#282828"/>
<path d="M24.4448 26.23H18.7852V40.0472H24.4448V26.23Z" fill="#68B968"/>
<path d="M24.4448 11.6826H18.7852V25.1066H24.4448V11.6826Z" fill="#C9345D"/>
<path d="M35.4868 22.8037H25.5547V28.5328H35.4868V22.8037Z" fill="#1A1A1A"/>
<path d="M36.4856 11.6826H25.5547V17.4117H36.4856V11.6826Z" fill="#8A4996"/>
<path d="M37.3179 34.3179H25.5547V40.0469H37.3179V34.3179Z" fill="#E0AC23"/>
<path d="M27.3297 51.6177C13.458 51.6177 2.13867 40.1595 2.13867 26.1177C2.13867 12.0758 13.458 0.617676 27.3297 0.617676C41.2014 0.617676 52.5207 12.0758 52.5207 26.1177C52.5207 40.1595 41.2014 51.6177 27.3297 51.6177ZM27.3297 3.25754C14.8452 3.25754 4.74655 13.48 4.74655 26.1177C4.74655 38.6992 14.9006 48.9778 27.3297 48.9778C39.8142 48.9778 49.9128 38.6992 49.9128 26.1177C49.9128 13.48 39.7587 3.25754 27.3297 3.25754Z" fill="#AFAFAF"/>
</g>
<defs>
<clipPath id="clip0_2_635">
<rect width="236" height="51" fill="white" transform="translate(0.716797 0.617676)"/>
</clipPath>
</defs>
</svg>
