<svg width="40" height="41" viewBox="0 0 40 41" fill="none" xmlns="http://www.w3.org/2000/svg">
<path d="M26.1261 25.045L23.8945 22.8081C23.45 22.3644 22.7139 22.3779 22.254 22.8391L21.1297 23.9657C21.0587 23.9264 20.9851 23.8854 20.9078 23.842C20.1979 23.4477 19.2261 22.9073 18.2036 21.8817C17.1781 20.8539 16.6384 19.8785 16.2438 19.1665C16.2021 19.091 16.1622 19.0183 16.1228 18.9492L16.8774 18.1941L17.2484 17.8218C17.7091 17.36 17.7218 16.6224 17.2783 16.1774L15.0467 13.9403C14.6033 13.4959 13.8669 13.5094 13.4062 13.9712L12.7772 14.6052L12.7944 14.6223C12.5835 14.892 12.4073 15.2031 12.2762 15.5385C12.1553 15.8578 12.08 16.1625 12.0456 16.4678C11.7509 18.9162 12.8672 21.1539 15.8968 24.1903C20.0845 28.3872 23.4592 28.0702 23.6048 28.0547C23.9219 28.0167 24.2258 27.9408 24.5346 27.8206C24.8664 27.6907 25.1765 27.5143 25.4455 27.3034L25.4592 27.3156L26.0964 26.6903C26.5561 26.2285 26.5693 25.4907 26.1261 25.045Z" fill="#707C8B"/>
<rect x="0.5" y="1.11572" width="39" height="39" rx="3.5" stroke="#CFD3D8"/>
</svg>
