<svg width="54" height="47" viewBox="0 0 54 47" fill="none" xmlns="http://www.w3.org/2000/svg">
<path d="M18.5841 1.32568H35.2491C45.1058 1.32568 53.0996 9.31944 53.0996 19.1762C53.0996 29.0329 45.1058 37.0267 35.2491 37.0267H19.8204L16.9921 46.5447L13.3509 36.2476C6.03457 34.0121 0.716682 27.2038 0.716682 19.1592C0.733618 9.31945 8.72739 1.32568 18.5841 1.32568Z" fill="#8A4996"/>
<path d="M18.5841 1.32568H35.2491C45.1058 1.32568 53.0996 9.31944 53.0996 19.1762C53.0996 29.0329 45.1058 37.0267 35.2491 37.0267H19.8204L16.9921 46.5447L13.3509 36.2476C6.03457 34.0121 0.716684 27.2038 0.716684 19.1592C0.73362 9.31945 8.72739 1.32568 18.5841 1.32568Z" stroke="#231F20" stroke-width="0.89711" stroke-miterlimit="10" stroke-linecap="round" stroke-linejoin="round"/>
<path d="M31.4863 21.2593C30.7754 21.2593 30.1992 20.6831 30.1992 19.9722C30.1992 19.2613 30.7754 18.6851 31.4863 18.6851C32.1972 18.6851 32.7734 19.2613 32.7734 19.9722C32.7734 20.6831 32.1972 21.2593 31.4863 21.2593Z" fill="white"/>
<path d="M26.5742 21.2593C25.8633 21.2593 25.2871 20.6831 25.2871 19.9722C25.2871 19.2613 25.8633 18.6851 26.5742 18.6851C27.2851 18.6851 27.8613 19.2613 27.8613 19.9722C27.8613 20.6831 27.2851 21.2593 26.5742 21.2593Z" fill="white"/>
<path d="M21.664 21.2593C20.9532 21.2593 20.3769 20.6831 20.3769 19.9722C20.3769 19.2613 20.9532 18.6851 21.664 18.6851C22.3749 18.6851 22.9512 19.2613 22.9512 19.9722C22.9512 20.6831 22.3749 21.2593 21.664 21.2593Z" fill="white"/>
</svg>
